<svg width="1440" height="1024" viewBox="0 0 1440 1024" fill="none" xmlns="http://www.w3.org/2000/svg">
<rect width="1440" height="1024" fill="#051D34"/>
<rect x="1264" y="330" width="34" height="37" rx="6" fill="#032F62"/>
<rect x="1264" y="376" width="34" height="37" rx="6" fill="#FE9A22"/>
<rect x="1264" y="423" width="34" height="37" rx="6" fill="#24292E"/>
<rect x="1264" y="469" width="34" height="37" rx="6" fill="#005CC5"/>
<rect x="1264" y="562" width="34" height="37" rx="6" fill="#24292E"/>
<rect x="1090" y="423" width="34" height="37" rx="6" fill="#005CC5"/>
<rect x="1307" y="330" width="35" height="37" rx="6" fill="#24292E"/>
<rect x="1307" y="423" width="35" height="37" rx="6" fill="#24292E"/>
<rect x="1307" y="469" width="35" height="37" rx="6" fill="#032F62"/>
<rect x="1307" y="562" width="35" height="37" rx="6" fill="#24292E"/>
<rect x="1133" y="469" width="35" height="37" rx="6" fill="#032F62"/>
<rect x="1133" y="515" width="35" height="37" rx="6" fill="#24292E"/>
<rect x="1351" y="376" width="34" height="37" rx="6" fill="#24292E"/>
<rect x="1351" y="469" width="34" height="37" rx="6" fill="#FE9A22"/>
<rect x="1351" y="515" width="34" height="37" rx="6" fill="#005CC5"/>
<rect x="1177" y="376" width="34" height="37" rx="6" fill="#005CC5"/>
<rect x="1177" y="423" width="34" height="37" rx="6" fill="#24292E"/>
<rect x="1177" y="562" width="34" height="37" rx="6" fill="#24292E"/>
<rect x="1394" y="330" width="35" height="37" rx="6" fill="#005CC5"/>
<rect x="1394" y="376" width="35" height="37" rx="6" fill="#032F62"/>
<rect x="1394" y="423" width="35" height="37" rx="6" fill="#24292E"/>
<rect x="1394" y="515" width="35" height="37" rx="6" fill="#005CC5"/>
<rect x="1394" y="562" width="35" height="37" rx="6" fill="#FE9A22"/>
<rect x="1220" y="330" width="35" height="37" rx="6" fill="#24292E"/>
<rect x="1220" y="376" width="35" height="37" rx="6" fill="#032F62"/>
<rect x="1220" y="469" width="35" height="37" rx="6" fill="#24292E"/>
<rect x="1220" y="515" width="35" height="37" rx="6" fill="#FE9A22"/>
<rect x="1220" y="562" width="35" height="37" rx="6" fill="#005CC5"/>
<rect x="1046" y="887" width="35" height="37" rx="6" fill="#005CC5"/>
<rect x="1046" y="980" width="35" height="37" rx="6" fill="#24292E"/>
<rect x="1264" y="748" width="34" height="37" rx="6" fill="#24292E"/>
<rect x="1264" y="794" width="34" height="37" rx="6" fill="#24292E"/>
<rect x="785" y="980" width="35" height="37" rx="6" fill="#24292E"/>
<rect x="1264" y="841" width="34" height="37" rx="6" fill="#005CC5"/>
<rect x="1264" y="887" width="34" height="37" rx="6" fill="#032F62"/>
<rect x="1264" y="933" width="34" height="37" rx="6" fill="#FE9A22"/>
<rect x="1264" y="980" width="34" height="37" rx="6" fill="#24292E"/>
<rect x="872" y="933" width="35" height="37" rx="6" fill="#24292E"/>
<rect x="1090" y="702" width="34" height="37" rx="6" fill="#24292E"/>
<rect x="1090" y="748" width="34" height="37" rx="6" fill="#005CC5"/>
<rect x="1090" y="841" width="34" height="37" rx="6" fill="#FE9A22"/>
<rect x="1090" y="887" width="34" height="37" rx="6" fill="#24292E"/>
<rect x="1090" y="933" width="34" height="37" rx="6" fill="#032F62"/>
<rect x="1307" y="655" width="35" height="37" rx="6" fill="#24292E"/>
<rect x="1307" y="748" width="35" height="37" rx="6" fill="#005CC5"/>
<rect x="1133" y="794" width="35" height="37" rx="6" fill="#24292E"/>
<rect x="829" y="980" width="34" height="37" rx="6" fill="#FE9A22"/>
<rect x="1307" y="887" width="35" height="37" rx="6" fill="#24292E"/>
<rect x="1307" y="980" width="35" height="37" rx="6" fill="#24292E"/>
<rect x="916" y="933" width="34" height="37" rx="6" fill="#24292E"/>
<rect x="703" y="980" width="34" height="37" rx="6" fill="#24292E"/>
<rect x="1133" y="841" width="35" height="37" rx="6" fill="#032F62"/>
<rect x="1133" y="887" width="35" height="37" rx="6" fill="#24292E"/>
<rect x="1133" y="980" width="35" height="37" rx="6" fill="#24292E"/>
<rect x="1351" y="655" width="34" height="37" rx="6" fill="#24292E"/>
<rect x="1351" y="702" width="34" height="37" rx="6" fill="#24292E"/>
<rect x="1351" y="841" width="34" height="37" rx="6" fill="#FE9A22"/>
<rect x="1351" y="887" width="34" height="37" rx="6" fill="#24292E"/>
<rect x="1351" y="933" width="34" height="37" rx="6" fill="#005CC5"/>
<rect x="959" y="933" width="35" height="37" rx="6" fill="#032F62"/>
<rect x="959" y="980" width="35" height="37" rx="6" fill="#FE9A22"/>
<rect x="1177" y="702" width="34" height="37" rx="6" fill="#032F62"/>
<rect x="1177" y="748" width="34" height="37" rx="6" fill="#FE9A22"/>
<rect x="1177" y="794" width="34" height="37" rx="6" fill="#032F62"/>
<rect x="1177" y="841" width="34" height="37" rx="6" fill="#FE9A22"/>
<rect x="1177" y="933" width="34" height="37" rx="6" fill="#24292E"/>
<rect x="1177" y="980" width="34" height="37" rx="6" fill="#032F62"/>
<rect x="1394" y="702" width="35" height="37" rx="6" fill="#24292E"/>
<rect x="1394" y="794" width="35" height="37" rx="6" fill="#24292E"/>
<rect x="1394" y="841" width="35" height="37" rx="6" fill="#032F62"/>
<rect x="1003" y="887" width="34" height="37" rx="6" fill="#24292E"/>
<rect x="1003" y="933" width="34" height="37" rx="6" fill="#24292E"/>
<rect x="1003" y="980" width="34" height="37" rx="6" fill="#005CC5"/>
<rect x="1220" y="655" width="35" height="37" rx="6" fill="#24292E"/>
<rect x="1220" y="702" width="35" height="37" rx="6" fill="#032F62"/>
<rect x="1220" y="748" width="35" height="37" rx="6" fill="#24292E"/>
<rect x="1220" y="841" width="35" height="37" rx="6" fill="#005CC5"/>
<rect x="1220" y="887" width="35" height="37" rx="6" fill="#24292E"/>
<rect x="1264" y="609" width="34" height="37" rx="6" fill="#FE9A22"/>
<rect x="1090" y="609" width="34" height="37" rx="6" fill="#032F62"/>
<rect x="1351" y="609" width="34" height="37" rx="6" fill="#032F62"/>
<rect x="1177" y="609" width="34" height="37" rx="6" fill="#24292E"/>
<rect x="1394" y="609" width="35" height="37" rx="6" fill="#005CC5"/>
</svg>
