<svg width="2002" height="1424" viewBox="0 0 1440 1024" fill="none" xmlns="http://www.w3.org/2000/svg">
<rect width="1440" height="1024" fill="url(#paint0_linear)"/>
<g opacity="0.3">
<path d="M917.809 893.621L871.899 918.204C868.854 919.82 865.551 920.895 862.137 921.38L908.046 896.797C911.466 896.336 914.773 895.26 917.809 893.621Z" fill="#2E407C"/>
<path d="M101.284 141.277L55.3357 165.86C50.9056 147.943 57.5704 131.319 70.5865 124.34L116.535 99.7964C103.48 106.775 96.9323 123.321 101.284 141.277Z" fill="#374E94"/>
<path d="M908.046 896.796L862.137 921.379L297.702 1000.7L343.65 976.151L908.046 896.796Z" fill="#374E94"/>
<path d="M298.956 941.297L253.047 965.841L55.3358 165.86L101.284 141.278L298.956 941.297Z" fill="#374E94"/>
<path d="M690.732 17.3048C709.982 14.5995 729.938 30.2039 735.387 52.1598L933.059 851.983C938.508 873.939 927.296 893.935 908.046 896.64L343.493 975.956C324.204 978.661 304.288 963.096 298.799 941.101L101.127 141.277C95.6778 119.321 106.89 99.3259 126.14 96.6206L690.732 17.3048Z" fill="#587BEB"/>
<path d="M343.65 976.112L297.701 1000.69C278.452 1003.4 258.496 987.796 253.047 965.84L298.956 941.336C304.406 963.331 324.361 978.896 343.65 976.191" fill="#374E94"/>
<path d="M648.744 83.4085C667.994 80.7816 687.949 95.8763 693.438 117.205L867.312 799.407C872.722 820.657 861.51 840.065 842.26 842.535L382.933 910.481C363.684 913.068 343.728 897.934 338.279 876.645L164.365 194.443C158.955 173.114 170.167 153.746 189.417 151.119L648.744 83.4085Z" fill="#E5EFFD"/>
<path d="M569.001 273.406L558.651 278.934L536.343 269.995L546.693 264.466L569.001 273.406Z" fill="#FF9900"/>
<path d="M528.541 231.689L518.191 237.218L522.347 213.419L532.697 207.851L528.541 231.689Z" fill="#FF9900"/>
<path d="M530.109 278.855L519.759 284.383L517.368 259.173L527.718 253.645L530.109 278.855Z" fill="#FF9900"/>
<path d="M532.697 207.851L547.987 228.945L570.608 229.533L559.2 249.215L569.001 273.405L546.693 264.466L530.109 278.855L527.718 253.645L507.684 238.354L528.541 231.689L532.697 207.851Z" fill="#FFBF60"/>
<path d="M527.718 253.645L517.368 259.173L497.295 243.922L507.684 238.354L527.718 253.645Z" fill="#FF9900"/>
<path d="M491.532 284.266L481.181 289.834L458.835 280.894L469.185 275.327L491.532 284.266Z" fill="#FF9900"/>
<path d="M451.033 242.59L440.682 248.118L444.838 224.319L455.228 218.751L451.033 242.59Z" fill="#FF9900"/>
<path d="M452.64 289.755L442.29 295.283L439.898 270.073L450.288 264.545L452.64 289.755Z" fill="#FF9900"/>
<path d="M455.228 218.751L470.479 239.845L493.1 240.433L481.73 260.115L491.532 284.267L469.185 275.327L452.64 289.755L450.288 264.545L430.215 249.254L451.033 242.589L455.228 218.751Z" fill="#FFBF60"/>
<path d="M450.288 264.545L439.898 270.073L419.825 254.783L430.215 249.254L450.288 264.545Z" fill="#FF9900"/>
<path d="M414.062 295.165L403.673 300.732L381.365 291.793L391.716 286.226L414.062 295.165Z" fill="#FF9900"/>
<path d="M373.564 253.488L363.174 259.017L367.369 235.179L377.759 229.65L373.564 253.488Z" fill="#FF9900"/>
<path d="M375.171 300.654L364.782 306.183L362.429 280.972L372.78 275.405L375.171 300.654Z" fill="#FF9900"/>
<path d="M377.759 229.65L393.009 250.744L415.631 251.293L404.222 271.014L414.062 295.165L391.716 286.226L375.171 300.655L372.78 275.405L352.707 260.154L373.564 253.488L377.759 229.65Z" fill="#FFBF60"/>
<path d="M372.78 275.406L362.429 280.973L342.356 265.682L352.707 260.154L372.78 275.406Z" fill="#FF9900"/>
<path d="M336.593 306.065L326.204 311.593L303.857 302.653L314.246 297.125L336.593 306.065Z" fill="#FF9900"/>
<path d="M296.094 264.349L285.705 269.916L289.9 246.078L300.25 240.55L296.094 264.349Z" fill="#FF9900"/>
<path d="M297.702 311.514L287.312 317.082L284.921 291.872L295.271 286.304L297.702 311.514Z" fill="#FF9900"/>
<path d="M300.25 240.55L315.501 261.643L338.161 262.192L326.753 281.874L336.593 306.065L314.246 297.125L297.702 311.514L295.271 286.304L275.237 271.053L296.094 264.349L300.25 240.55Z" fill="#FFBF60"/>
<path d="M295.271 286.304L284.921 291.872L264.887 276.581L275.237 271.053L295.271 286.304Z" fill="#FF9900"/>
<path d="M694.888 480.889L701.24 506.491L329.144 558.794L322.793 533.191L694.888 480.889Z" fill="white"/>
<path d="M693.634 427.999L699.946 453.562L316.442 507.472L310.13 481.909L693.634 427.999Z" fill="white"/>
<path d="M680.97 376.716L687.282 402.279L303.778 456.189L297.466 430.626L680.97 376.716Z" fill="white"/>
<path d="M668.307 325.434L674.619 350.997L291.115 404.906L284.764 379.344L668.307 325.434Z" fill="white"/>
<path d="M633.454 648.773L639.766 674.336L367.134 712.642L360.822 687.079L633.454 648.773Z" fill="white"/>
<path d="M673.051 590.12L679.363 615.683L354.47 661.359L348.158 635.796L673.051 590.12Z" fill="white"/>
<path d="M689.635 534.72L695.947 560.284L341.808 610.077L335.496 584.513L689.635 534.72Z" fill="white"/>
<path d="M590.917 707.819L597.229 733.382L379.836 763.924L373.485 738.361L590.917 707.819Z" fill="white"/>
<path d="M507.606 791.527C516.192 790.311 525.052 797.251 527.483 807.014C529.914 816.776 524.935 825.715 516.349 826.931L415.082 841.163C406.535 842.339 397.597 835.399 395.205 825.48C392.814 815.561 397.753 806.778 406.339 805.602L507.606 791.527Z" fill="#587BEB"/>
<path d="M646.509 262.506L636.159 268.035L613.812 259.095L624.162 253.567L646.509 262.506Z" fill="#FF9900"/>
<path d="M606.01 220.79L595.66 226.357L599.816 202.519L610.166 196.991L606.01 220.79Z" fill="#FF9900"/>
<path d="M607.618 267.956L597.267 273.523L594.876 248.313L605.226 242.746L607.618 267.956Z" fill="#FF9900"/>
<path d="M610.166 196.991L625.456 218.045L648.077 218.633L636.708 238.315L646.509 262.506L624.162 253.567L607.618 267.956L605.226 242.746L585.153 227.494L606.01 220.79L610.166 196.991Z" fill="#FFBF60"/>
<path d="M605.226 242.746L594.876 248.313L574.803 233.023L585.153 227.495L605.226 242.746Z" fill="#FF9900"/>
</g>
<g opacity="0.9" clip-path="url(#clip0)">
<path fill-rule="evenodd" clip-rule="evenodd" d="M261.191 158.048C257.011 161.074 255.182 164.096 255.704 167.115C257.69 167.001 259.437 167.514 260.945 168.654C262.453 169.794 263.362 171.258 263.672 173.046C264.001 174.947 263.661 176.656 262.651 178.174C261.642 179.692 260.201 180.613 258.329 180.937C256.233 181.3 254.27 180.767 252.442 179.337C250.613 177.908 249.489 175.982 249.07 173.56C247.812 166.294 250.909 159.905 258.36 154.393L261.191 158.048ZM245.073 160.838C240.855 163.871 239.007 166.897 239.53 169.915C241.553 169.795 243.318 170.305 244.827 171.445C246.335 172.584 247.244 174.049 247.554 175.837C247.883 177.738 247.533 179.448 246.505 180.97C245.477 182.491 244.027 183.414 242.155 183.738C240.058 184.101 238.105 183.566 236.295 182.133C234.486 180.7 233.371 178.773 232.952 176.351C231.694 169.084 234.772 162.699 242.186 157.193L245.073 160.838Z" fill="white"/>
</g>
<path d="M40.4505 16.7713C40.2875 17.1788 39.9213 17.4364 39.5143 17.4364H37.4794V28.2995C36.706 28.7932 36.0345 29.3723 35.4445 30.0805C34.8544 29.3723 34.1827 28.7932 33.4095 28.2995V17.4364H31.3746C30.9676 17.4364 30.6011 17.1788 30.4384 16.7713C30.2757 16.3637 30.3571 15.9131 30.6623 15.6128L34.7322 11.3218C34.9153 11.1073 35.1797 11 35.4445 11C35.7089 11 35.9736 11.1073 36.1564 11.3218L40.2263 15.6128C40.5318 15.9131 40.6132 16.3637 40.4505 16.7713Z" fill="#FF637B"/>
<path d="M40.4505 16.7713C40.2875 17.1788 39.9213 17.4364 39.5144 17.4364H37.4794V28.2995C36.706 28.7932 36.0345 29.3723 35.4445 30.0805V11C35.7089 11 35.9736 11.1073 36.1564 11.3218L40.2263 15.6128C40.5318 15.9131 40.6132 16.3637 40.4505 16.7713Z" fill="#E63950"/>
<path d="M53.5656 26.5366L49.1864 22.1426C48.8852 21.8131 48.4328 21.7253 48.0237 21.9009C47.6142 22.0765 47.356 22.4722 47.356 22.9116V25.1086H41.9716C40.3995 25.1086 38.9348 25.548 37.6641 26.2729C36.8455 26.7783 36.1349 27.3714 35.5104 28.0965L34.1724 30.2935L37.6641 33.8965C37.6641 31.4799 39.6025 29.5026 41.9716 29.5026H47.356V31.6996C47.356 32.139 47.6142 32.5343 48.0237 32.7102C48.4328 32.8859 48.8852 32.798 49.1864 32.4685L53.5656 28.0745C53.9967 27.6571 53.9967 26.954 53.5656 26.5366Z" fill="#DFAA05"/>
<path d="M37.3525 33.7314V46.8054C37.3525 47.412 36.8827 47.8889 36.2851 47.8889H34.1502C33.5522 47.8889 33.0827 47.412 33.0827 46.8054V33.7314C33.0827 31.3477 31.1611 29.3974 28.813 29.3974H23.4046V31.5644C23.4046 31.9978 23.1483 32.3877 22.7428 32.5613C22.3372 32.7345 21.8888 32.6479 21.59 32.3228L17.3202 27.9889C16.8933 27.5773 16.8933 26.8837 17.3202 26.472L21.59 22.1381C21.8888 21.8131 22.3372 21.7264 22.7428 21.8997C23.1483 22.0729 23.4046 22.4632 23.4046 22.8965V25.0635H28.813C30.3713 25.0635 31.8229 25.4969 33.0827 26.2119C33.8939 26.7105 34.5986 27.2954 35.2176 28.0106C36.5411 29.5492 37.3525 31.5427 37.3525 33.7314Z" fill="#51B5B1"/>
<path d="M37.3525 33.8465V46.8142C37.3525 47.4159 36.9326 47.8888 36.3985 47.8888H35.4445V28.1724C36.6273 29.6984 37.3525 31.6757 37.3525 33.8465Z" fill="#00C8C8"/>
<path d="M86.1637 45.2749C85.3496 45.8092 84.2811 46.2417 82.9582 46.5724C81.6353 46.9286 80.236 47.1321 78.7605 47.183C76.5471 47.2593 74.5373 46.9413 72.731 46.229C70.9502 45.5166 69.4365 44.5117 68.1899 43.2143C66.9433 41.9168 65.9766 40.3903 65.2897 38.6349C64.6282 36.8541 64.2975 34.9461 64.2975 32.9108C64.2975 30.901 64.59 29.0693 65.1752 27.4156C65.7857 25.762 66.6507 24.3373 67.7701 23.1416C68.8895 21.9713 70.2379 21.0682 71.8152 20.4322C73.4179 19.7707 75.2115 19.44 77.1959 19.44C78.5951 19.44 79.8671 19.6435 81.012 20.0506C82.1822 20.4322 83.1871 20.9283 84.0267 21.5388C84.8408 22.1749 85.4768 22.8872 85.9347 23.6759C86.3926 24.4391 86.6216 25.2023 86.6216 25.9655H82.2331C82.2331 25.5585 82.1186 25.1387 81.8897 24.7062C81.6607 24.2483 81.33 23.8412 80.8975 23.4851C80.465 23.1034 79.918 22.7982 79.2566 22.5692C78.5951 22.3148 77.8446 22.1876 77.0051 22.1876C76.2673 22.1876 75.415 22.3402 74.4483 22.6455C73.4815 22.9254 72.5657 23.4342 71.7007 24.172C70.8357 24.9352 70.0979 25.9782 69.4874 27.3011C68.9022 28.5986 68.6097 30.2777 68.6097 32.3384C68.6097 33.9666 68.8259 35.5185 69.2584 36.994C69.6909 38.4441 70.3396 39.7162 71.2046 40.8101C72.0441 41.9295 73.0872 42.8072 74.3338 43.4432C75.6058 44.0792 77.0559 44.3972 78.6841 44.3972C79.7781 44.3972 80.9229 44.2828 82.1186 44.0538C83.3143 43.8248 84.421 43.4432 85.4386 42.909C85.7439 42.7563 86.011 42.7563 86.24 42.909C86.4944 43.0362 86.6725 43.2397 86.7743 43.5195C86.876 43.7994 86.876 44.1047 86.7743 44.4354C86.6979 44.7661 86.4944 45.046 86.1637 45.2749ZM94.0922 21.1191V31.4988C94.194 31.2444 94.4102 30.901 94.7409 30.4685C95.0717 30.036 95.5169 29.6162 96.0766 29.2092C96.6108 28.7767 97.2596 28.4078 98.0228 28.1025C98.8114 27.7972 99.7019 27.6446 100.694 27.6446C101.712 27.6446 102.589 27.8736 103.327 28.3315C104.09 28.764 104.714 29.3364 105.197 30.0487C105.68 30.7356 106.037 31.537 106.266 32.4529C106.52 33.3433 106.647 34.2464 106.647 35.1623V46.8014H102.869V35.2005C102.869 34.7171 102.818 34.221 102.717 33.7122C102.615 33.1779 102.437 32.6946 102.182 32.2621C101.953 31.855 101.623 31.5116 101.19 31.2317C100.783 30.9519 100.274 30.812 99.6637 30.812C98.7987 30.812 98.0228 31.0791 97.3359 31.6133C96.649 32.1476 96.0639 32.7963 95.5805 33.5595C95.0971 34.3482 94.7282 35.1877 94.4738 36.0782C94.2194 36.9686 94.0922 37.7827 94.0922 38.5205V46.8014H90.3143V24.4391C90.3143 24.1338 90.3016 23.8539 90.2761 23.5995C90.2761 23.3197 90.2507 23.0653 90.1998 22.8363C90.1744 22.6074 90.098 22.4165 89.9708 22.2639C89.8691 22.0858 89.7291 21.9205 89.5511 21.7678C89.373 21.6406 89.1567 21.5516 88.9023 21.5007C88.6734 21.4244 88.4444 21.3862 88.2154 21.3862C87.8338 21.3862 87.5412 21.2844 87.3377 21.0809C87.1596 20.8519 87.0706 20.5848 87.0706 20.2795C87.0706 20.0251 87.1596 19.7962 87.3377 19.5926C87.5412 19.3891 87.7702 19.2874 88.0246 19.2874H92.0697C92.6803 19.2874 93.1636 19.5036 93.5198 19.9361C93.9014 20.3686 94.0922 20.7629 94.0922 21.1191ZM119.863 47.183C118.591 47.183 117.37 46.9795 116.199 46.5724C115.054 46.1654 114.05 45.5548 113.185 44.7407C112.294 43.9266 111.582 42.9217 111.048 41.726C110.539 40.5048 110.284 39.1056 110.284 37.5283C110.284 36.2054 110.501 34.9461 110.933 33.7503C111.366 32.5292 111.989 31.4734 112.803 30.583C113.617 29.6926 114.609 28.9802 115.78 28.446C116.95 27.9117 118.285 27.6446 119.786 27.6446C121.16 27.6446 122.432 27.8863 123.603 28.3697C124.773 28.8276 125.79 29.4763 126.655 30.3159C127.52 31.1808 128.195 32.2239 128.678 33.4451C129.187 34.6408 129.441 35.9891 129.441 37.4901C129.441 38.9911 129.187 40.3395 128.678 41.5352C128.195 42.7309 127.52 43.7485 126.655 44.588C125.816 45.4276 124.811 46.0636 123.641 46.4961C122.47 46.954 121.211 47.183 119.863 47.183ZM114.329 37.5283C114.329 38.495 114.431 39.4109 114.635 40.2759C114.864 41.1408 115.207 41.9041 115.665 42.5655C116.123 43.227 116.695 43.7485 117.382 44.1301C118.095 44.5117 118.934 44.7025 119.901 44.7025C120.791 44.7025 121.567 44.5117 122.229 44.1301C122.916 43.7231 123.488 43.1888 123.946 42.5274C124.404 41.8659 124.747 41.1027 124.976 40.2377C125.205 39.3727 125.32 38.4569 125.32 37.4901C125.32 36.5488 125.205 35.6457 124.976 34.7807C124.747 33.8903 124.404 33.1016 123.946 32.4147C123.488 31.7278 122.903 31.1808 122.191 30.7738C121.504 30.3413 120.69 30.1251 119.748 30.1251C118.807 30.1251 117.993 30.3286 117.306 30.7356C116.645 31.1427 116.085 31.6769 115.627 32.3384C115.194 33.0253 114.864 33.8139 114.635 34.7044C114.431 35.5948 114.329 36.5361 114.329 37.5283ZM137.772 46.8014H133.994V33.4832C133.994 32.5928 133.956 31.9313 133.88 31.4988C133.829 31.0664 133.625 30.7356 133.269 30.5067C133.091 30.4303 132.875 30.354 132.62 30.2777C132.391 30.2014 132.162 30.1632 131.934 30.1632C131.552 30.1632 131.259 30.0487 131.056 29.8198C130.878 29.5908 130.789 29.3237 130.789 29.0184C130.789 28.764 130.903 28.535 131.132 28.3315C131.387 28.128 131.641 28.0262 131.895 28.0262H135.75C136.36 28.0262 136.844 28.2552 137.2 28.7131C137.581 29.1456 137.772 29.5781 137.772 30.0106V46.8014ZM132.773 22.2257C132.773 21.5388 133.027 20.9283 133.536 20.394C134.071 19.8598 134.707 19.5926 135.444 19.5926C136.157 19.5926 136.78 19.8598 137.314 20.394C137.848 20.9283 138.116 21.5388 138.116 22.2257C138.116 22.9381 137.848 23.5614 137.314 24.0956C136.78 24.6044 136.157 24.8588 135.444 24.8588C134.707 24.8588 134.071 24.6044 133.536 24.0956C133.027 23.5614 132.773 22.9381 132.773 22.2257ZM158.599 45.8474C158.039 46.1526 157.124 46.4707 155.851 46.8014C154.579 47.1321 153.18 47.2593 151.654 47.183C150.28 47.1575 148.995 46.9031 147.8 46.4198C146.604 45.9618 145.548 45.3004 144.632 44.4354C143.742 43.5704 143.042 42.5146 142.533 41.268C142.025 39.996 141.77 38.5332 141.77 36.8795C141.77 35.404 142.025 34.0938 142.533 32.949C143.042 31.7787 143.729 30.812 144.594 30.0487C145.484 29.2601 146.515 28.6622 147.685 28.2552C148.881 27.8481 150.166 27.6446 151.539 27.6446C152.582 27.6446 153.562 27.7972 154.478 28.1025C155.419 28.3824 156.246 28.7767 156.958 29.2855C157.645 29.8198 158.205 30.4431 158.637 31.1554C159.095 31.8423 159.362 32.5928 159.439 33.4069H155.279C155.279 32.4656 154.961 31.6769 154.325 31.0409C153.714 30.4049 152.659 30.0869 151.158 30.0869C150.445 30.0869 149.758 30.2268 149.097 30.5067C148.461 30.7611 147.889 31.1681 147.38 31.7278C146.871 32.2621 146.464 32.9617 146.159 33.8267C145.879 34.6916 145.739 35.7093 145.739 36.8795C145.739 39.1692 146.311 41.0009 147.456 42.3747C148.601 43.7485 150.318 44.5244 152.608 44.7025C152.913 44.7534 153.575 44.728 154.592 44.6262C155.635 44.499 156.716 44.2064 157.836 43.7485C158.141 43.6213 158.408 43.634 158.637 43.7867C158.892 43.9139 159.07 44.1047 159.171 44.3591C159.248 44.588 159.248 44.8552 159.171 45.1605C159.095 45.4403 158.904 45.6693 158.599 45.8474ZM171.703 47.183C170.329 47.183 169.045 46.954 167.849 46.4961C166.653 46.0382 165.597 45.3513 164.682 44.4354C163.791 43.545 163.092 42.451 162.583 41.1536C162.074 39.8561 161.819 38.3805 161.819 36.7269C161.819 35.2768 162.048 33.992 162.506 32.8726C162.99 31.7278 163.651 30.7738 164.491 30.0106C165.356 29.2474 166.361 28.6622 167.505 28.2552C168.676 27.8481 169.948 27.6446 171.322 27.6446C172.314 27.6446 173.306 27.8354 174.298 28.217C175.316 28.5732 176.219 29.0947 177.008 29.7816C177.822 30.4939 178.483 31.3716 178.992 32.4147C179.501 33.4323 179.755 34.6026 179.755 35.9255V38.1007H165.826C166.004 40.0087 166.653 41.5352 167.773 42.68C168.917 43.7994 170.546 44.4608 172.657 44.6644C173.013 44.7152 173.7 44.6898 174.718 44.588C175.761 44.4863 176.817 44.2064 177.885 43.7485C178.191 43.6213 178.458 43.6213 178.687 43.7485C178.941 43.8757 179.119 44.0538 179.221 44.2828C179.323 44.5372 179.335 44.8043 179.259 45.0841C179.183 45.364 178.979 45.593 178.648 45.771C177.682 46.3053 176.664 46.6742 175.596 46.8777C174.527 47.0812 173.23 47.183 171.703 47.183ZM171.207 29.9724C169.96 29.9724 168.79 30.3922 167.696 31.2317C166.628 32.0713 166.004 33.4705 165.826 35.4294H175.863C175.863 33.4451 175.379 32.0458 174.413 31.2317C173.446 30.3922 172.377 29.9724 171.207 29.9724Z" fill="black"/>
<path d="M281.896 203.397L272.581 191.636L269.45 192.124L271.462 205.024L264.822 206.059L259.66 172.955L272.086 171.018C274.647 170.618 276.9 170.737 278.845 171.372C280.786 171.977 282.319 172.984 283.446 174.396C284.6 175.77 285.324 177.406 285.62 179.303C285.96 181.485 285.636 183.56 284.648 185.527C283.654 187.464 281.96 188.959 279.566 190.012L289.579 202.199L281.896 203.397ZM268.674 187.144L274.223 186.279C276.025 185.998 277.302 185.361 278.054 184.37C278.802 183.346 279.054 182.06 278.813 180.511C278.576 178.993 277.951 177.892 276.938 177.208C275.919 176.492 274.509 176.275 272.707 176.556L267.158 177.422L268.674 187.144ZM317.493 183.806C317.64 184.755 317.71 185.618 317.702 186.397L298.494 189.392C298.948 191.265 299.844 192.647 301.182 193.54C302.519 194.432 304.041 194.745 305.749 194.479C308.215 194.094 309.805 192.762 310.518 190.481L317.679 189.364C317.315 192.012 316.186 194.325 314.292 196.305C312.394 198.252 309.879 199.47 306.749 199.958C304.22 200.353 301.857 200.155 299.661 199.363C297.491 198.536 295.677 197.183 294.218 195.306C292.791 193.423 291.868 191.138 291.449 188.45C291.025 185.731 291.206 183.258 291.992 181.03C292.778 178.802 294.081 176.98 295.901 175.563C297.72 174.145 299.926 173.235 302.519 172.83C305.016 172.441 307.329 172.631 309.457 173.4C311.617 174.164 313.389 175.459 314.775 177.283C316.187 179.071 317.093 181.245 317.493 183.806ZM310.32 182.981C310.022 181.279 309.193 180.016 307.834 179.191C306.47 178.335 304.918 178.043 303.179 178.314C301.535 178.57 300.223 179.293 299.243 180.482C298.289 181.635 297.823 183.117 297.847 184.927L310.32 182.981ZM320.706 183.791C320.291 181.135 320.446 178.698 321.169 176.48C321.923 174.257 323.115 172.452 324.745 171.065C326.406 169.672 328.359 168.801 330.604 168.451C332.564 168.145 334.333 168.274 335.911 168.837C337.52 169.396 338.861 170.207 339.934 171.271L339.35 167.524L346.037 166.481L350.134 192.756L343.447 193.798L342.848 189.957C342.187 191.323 341.161 192.536 339.772 193.594C338.409 194.616 336.747 195.28 334.787 195.586C332.574 195.931 330.462 195.678 328.45 194.825C326.471 193.968 324.783 192.596 323.387 190.708C322.019 188.784 321.125 186.478 320.706 183.791ZM341.398 180.661C341.147 179.049 340.616 177.723 339.807 176.683C338.992 175.612 338 174.86 336.831 174.426C335.658 173.962 334.454 173.825 333.221 174.018C331.988 174.21 330.897 174.688 329.947 175.451C328.997 176.215 328.282 177.233 327.8 178.507C327.345 179.744 327.241 181.152 327.488 182.733C327.734 184.314 328.267 185.656 329.087 186.759C329.933 187.825 330.928 188.593 332.07 189.063C333.243 189.528 334.431 189.666 335.632 189.479C336.865 189.287 337.973 188.806 338.954 188.038C339.93 187.238 340.646 186.219 341.101 184.983C341.551 183.714 341.65 182.274 341.398 180.661ZM352.848 178.778C352.434 176.123 352.589 173.686 353.311 171.468C354.066 169.245 355.274 167.437 356.935 166.045C358.596 164.652 360.549 163.781 362.794 163.431C364.502 163.164 366.189 163.29 367.857 163.807C369.519 164.293 370.905 165.081 372.015 166.171L370.07 153.698L376.804 152.647L382.277 187.743L375.542 188.793L374.936 184.904C374.316 186.329 373.325 187.552 371.962 188.574C370.599 189.597 368.938 190.261 366.977 190.566C364.764 190.911 362.652 190.658 360.64 189.806C358.629 188.953 356.926 187.583 355.53 185.696C354.161 183.772 353.267 181.466 352.848 178.778ZM373.541 175.649C373.29 174.036 372.759 172.71 371.949 171.671C371.134 170.599 370.143 169.847 368.974 169.414C367.8 168.949 366.597 168.813 365.364 169.005C364.131 169.198 363.039 169.676 362.09 170.439C361.14 171.202 360.424 172.221 359.943 173.494C359.488 174.731 359.384 176.14 359.63 177.721C359.877 179.302 360.41 180.644 361.23 181.747C362.076 182.813 363.07 183.581 364.212 184.05C365.386 184.515 366.574 184.654 367.775 184.466C369.008 184.274 370.115 183.794 371.097 183.025C372.073 182.225 372.789 181.207 373.244 179.97C373.693 178.702 373.793 177.261 373.541 175.649ZM417.137 182.307L407.821 170.546L404.691 171.034L406.703 183.934L400.063 184.97L394.901 151.866L407.326 149.928C409.887 149.529 412.141 149.647 414.086 150.283C416.026 150.887 417.56 151.895 418.687 153.306C419.84 154.681 420.565 156.316 420.861 158.214C421.201 160.395 420.877 162.47 419.888 164.438C418.895 166.374 417.201 167.869 414.806 168.922L424.82 181.109L417.137 182.307ZM403.914 166.054L409.463 165.189C411.266 164.908 412.543 164.272 413.295 163.28C414.042 162.256 414.295 160.97 414.053 159.421C413.817 157.903 413.192 156.802 412.178 156.118C411.16 155.403 409.749 155.185 407.947 155.466L402.398 156.332L403.914 166.054ZM452.733 162.716C452.881 163.665 452.951 164.528 452.943 165.307L433.735 168.302C434.189 170.175 435.085 171.557 436.422 172.45C437.76 173.342 439.282 173.656 440.989 173.389C443.456 173.005 445.045 171.672 445.758 169.391L452.92 168.274C452.555 170.922 451.426 173.235 449.533 175.215C447.634 177.163 445.12 178.381 441.99 178.869C439.46 179.263 437.097 179.065 434.901 178.274C432.732 177.446 430.918 176.093 429.459 174.216C428.032 172.333 427.109 170.048 426.69 167.361C426.266 164.641 426.447 162.168 427.233 159.94C428.019 157.713 429.322 155.89 431.141 154.473C432.96 153.056 435.166 152.145 437.759 151.741C440.257 151.351 442.57 151.541 444.698 152.31C446.857 153.075 448.63 154.369 450.016 156.193C451.428 157.981 452.334 160.155 452.733 162.716ZM445.56 161.892C445.262 160.189 444.434 158.926 443.075 158.101C441.71 157.245 440.159 156.953 438.42 157.224C436.776 157.481 435.463 158.203 434.483 159.393C433.529 160.545 433.064 162.027 433.087 163.837L445.56 161.892ZM462.851 152.151C463.517 150.817 464.532 149.638 465.895 148.616C467.284 147.557 468.943 146.878 470.872 146.577C473.117 146.227 475.227 146.465 477.201 147.29C479.208 148.111 480.893 149.467 482.257 151.36C483.647 153.216 484.552 155.487 484.971 158.175C485.39 160.862 485.225 163.333 484.476 165.588C483.753 167.806 482.563 169.627 480.907 171.051C479.282 172.47 477.347 173.355 475.102 173.705C473.174 174.006 471.405 173.877 469.795 173.318C468.218 172.754 466.877 171.943 465.772 170.885L468.309 187.152L461.669 188.188L455.62 149.393L462.259 148.357L462.851 152.151ZM478.189 159.232C477.943 157.652 477.399 156.344 476.557 155.309C475.742 154.238 474.751 153.486 473.582 153.053C472.445 152.615 471.26 152.492 470.027 152.684C468.825 152.871 467.736 153.365 466.76 154.165C465.81 154.928 465.095 155.947 464.613 157.22C464.163 158.489 464.061 159.913 464.308 161.494C464.555 163.075 465.085 164.401 465.9 165.473C466.746 166.539 467.741 167.307 468.883 167.776C470.051 168.21 471.236 168.332 472.438 168.145C473.671 167.953 474.76 167.459 475.705 166.664C476.681 165.864 477.394 164.83 477.844 163.561C478.326 162.288 478.441 160.845 478.189 159.232ZM503.593 169.262C501.064 169.656 498.701 169.458 496.505 168.667C494.304 167.844 492.458 166.497 490.968 164.624C489.509 162.746 488.57 160.464 488.151 157.776C487.732 155.089 487.947 152.626 488.796 150.389C489.677 148.146 491.059 146.311 492.942 144.884C494.82 143.425 497.023 142.499 499.552 142.104C502.082 141.71 504.463 141.922 506.696 142.739C508.923 143.525 510.782 144.855 512.273 146.728C513.795 148.595 514.765 150.873 515.184 153.561C515.603 156.248 515.357 158.716 514.444 160.963C513.563 163.206 512.168 165.059 510.259 166.522C508.376 167.949 506.154 168.863 503.593 169.262ZM502.691 163.476C503.892 163.289 504.97 162.829 505.925 162.097C506.906 161.329 507.622 160.31 508.072 159.042C508.522 157.773 508.616 156.301 508.355 154.626C507.965 152.128 507.003 150.318 505.468 149.198C503.96 148.04 502.257 147.609 500.36 147.905C498.463 148.201 496.972 149.13 495.888 150.691C494.83 152.217 494.496 154.228 494.886 156.726C495.275 159.224 496.193 161.056 497.638 162.224C499.109 163.354 500.794 163.772 502.691 163.476ZM525.282 142.707C525.919 141.183 526.855 139.919 528.092 138.917C529.359 137.91 530.879 137.268 532.649 136.992L533.737 143.963L531.982 144.237C529.895 144.562 528.391 145.299 527.468 146.447C526.578 147.59 526.322 149.378 526.702 151.813L528.743 164.903L522.104 165.938L518.006 139.664L524.646 138.628L525.282 142.707ZM545.762 140.922L547.744 153.633C547.882 154.518 548.189 155.134 548.664 155.481C549.165 155.791 549.922 155.868 550.934 155.71L554.017 155.229L554.89 160.826L550.716 161.476C545.12 162.349 541.897 160.066 541.049 154.628L539.075 141.965L535.944 142.453L535.094 136.999L538.224 136.511L537.211 130.013L543.898 128.971L544.911 135.468L550.792 134.551L551.643 140.005L545.762 140.922ZM569.786 158.94C567.636 159.275 565.648 159.196 563.823 158.704C561.992 158.18 560.467 157.332 559.248 156.162C558.061 154.987 557.294 153.601 556.948 152.003L563.635 150.96C563.92 151.952 564.54 152.714 565.497 153.245C566.486 153.77 567.629 153.932 568.925 153.73C570.19 153.533 571.131 153.127 571.747 152.513C572.396 151.893 572.658 151.189 572.535 150.398C572.402 149.544 571.861 148.981 570.911 148.708C569.988 148.399 568.539 148.139 566.563 147.929C564.529 147.76 562.84 147.522 561.496 147.213C560.184 146.899 558.989 146.292 557.909 145.392C556.861 144.487 556.199 143.149 555.923 141.378C555.696 139.924 555.9 138.532 556.535 137.202C557.201 135.867 558.254 134.731 559.695 133.794C561.168 132.852 562.963 132.216 565.082 131.886C568.212 131.397 570.833 131.798 572.945 133.088C575.052 134.347 576.407 136.289 577.011 138.915L570.656 139.906C570.398 138.878 569.828 138.125 568.943 137.647C568.086 137.133 567.009 136.977 565.713 137.179C564.511 137.367 563.613 137.734 563.018 138.28C562.455 138.821 562.235 139.487 562.358 140.277C562.496 141.163 563.045 141.773 564.004 142.11C564.958 142.414 566.405 142.658 568.345 142.842C570.316 143.02 571.957 143.266 573.269 143.58C574.581 143.893 575.764 144.518 576.817 145.455C577.896 146.356 578.587 147.673 578.89 149.407C579.127 150.925 578.912 152.351 578.246 153.686C577.611 155.015 576.557 156.151 575.085 157.093C573.639 157.999 571.873 158.614 569.786 158.94Z" fill="#181F19"/>
<path fill-rule="evenodd" clip-rule="evenodd" d="M596.422 152.152C594.639 150.877 593.813 148.618 593.784 145.479C590.978 144.071 589.314 142.335 588.954 140.173C588.595 138.011 589.608 135.83 591.807 133.589C590.819 130.61 590.869 128.205 592.144 126.422C593.418 124.64 595.677 123.813 598.816 123.784C600.224 120.978 601.961 119.314 604.122 118.954C606.284 118.595 608.465 119.608 610.706 121.807C613.686 120.819 616.09 120.869 617.873 122.144C619.656 123.418 620.482 125.677 620.511 128.816C623.317 130.224 624.981 131.961 625.341 134.122C625.7 136.284 624.688 138.466 622.489 140.706C623.477 143.686 623.426 146.09 622.152 147.873C620.877 149.656 618.618 150.482 615.479 150.511C614.071 153.317 612.335 154.982 610.173 155.341C608.011 155.701 605.83 154.688 603.589 152.489C600.61 153.477 598.205 153.426 596.422 152.152ZM603.426 148.981C604.073 148.726 604.811 148.897 605.28 149.411C607.111 151.42 608.577 152.207 609.623 152.033C610.669 151.859 611.801 150.64 612.883 148.147C613.161 147.508 613.803 147.108 614.499 147.14C617.214 147.265 618.807 146.786 619.424 145.923C620.04 145.06 619.978 143.398 618.981 140.869C618.726 140.222 618.897 139.484 619.411 139.015C621.42 137.184 622.207 135.718 622.033 134.672C621.859 133.626 620.64 132.494 618.147 131.412C617.508 131.135 617.108 130.492 617.14 129.797C617.265 127.082 616.785 125.488 615.923 124.872C615.06 124.255 613.398 124.317 610.869 125.314C610.222 125.57 609.484 125.399 609.015 124.884C607.184 122.876 605.718 122.088 604.672 122.262C603.626 122.436 602.494 123.656 601.412 126.149C601.135 126.787 600.492 127.188 599.797 127.156C597.082 127.03 595.488 127.51 594.872 128.372C594.255 129.235 594.317 130.898 595.314 133.426C595.57 134.073 595.399 134.811 594.884 135.28C592.876 137.111 592.088 138.577 592.262 139.623C592.436 140.669 593.656 141.801 596.149 142.883C596.787 143.161 597.188 143.803 597.156 144.499C597.03 147.214 597.51 148.807 598.372 149.424C599.235 150.04 600.898 149.978 603.426 148.981ZM611.574 130.111L605.655 138.392L601.232 135.23L599.282 137.958L606.433 143.07L614.302 132.061L611.574 130.111Z" fill="white"/>
<defs>
<linearGradient id="paint0_linear" x1="1440" y1="16.5" x2="305.15" y2="1534.27" gradientUnits="userSpaceOnUse">
<stop offset="0.0349753" stop-color="#A04B9C"/>
<stop offset="0.5" stop-color="#6148C8"/>
<stop offset="0.988547" stop-color="#008C5A"/>
</linearGradient>
<clipPath id="clip0">
<rect width="31.0841" height="26.1501" fill="white" transform="translate(230 159.303) rotate(-9.82322)"/>
</clipPath>
</defs>
</svg>
