<svg height="50pt" viewBox="0 0 512 512" width="512pt" xmlns="http://www.w3.org/2000/svg"><path d="m329.800781 80.699219c-2.402343 5.699219-7.800781 9.300781-13.800781 9.300781h-30v151.898438c-11.402344 6.902343-21.300781 15-30 24.902343-8.699219-9.902343-18.601562-18-30-24.902343v-151.898438h-30c-6 0-11.402344-3.601562-13.800781-9.300781-2.398438-5.699219-1.199219-12 3.300781-16.199219l60-60c2.699219-3 6.597656-4.5 10.5-4.5 3.898438 0 7.800781 1.5 10.496094 4.5l60 60c4.503906 4.199219 5.703125 10.5 3.304687 16.199219zm0 0" fill="#ff637b"/><path d="m329.800781 80.699219c-2.402343 5.699219-7.800781 9.300781-13.800781 9.300781h-30v151.898438c-11.402344 6.902343-21.300781 15-30 24.902343v-266.800781c3.898438 0 7.800781 1.5 10.496094 4.5l60 60c4.503906 4.199219 5.703125 10.5 3.304687 16.199219zm0 0" fill="#e63950"/><path d="m507.496094 215.5-61-60c-4.195313-4.5-10.496094-5.699219-16.195313-3.300781-5.703125 2.398437-9.300781 7.800781-9.300781 13.800781v30h-75c-21.898438 0-42.300781 6-60 15.898438-11.402344 6.902343-21.300781 15-30 24.902343l-18.636719 30 48.636719 49.199219c0-33 27-60 60-60h75v30c0 6 3.597656 11.398438 9.300781 13.800781 5.699219 2.398438 12 1.199219 16.195313-3.300781l61-60c6.003906-5.699219 6.003906-15.300781 0-21zm0 0" fill="#fdbf00"/><path d="m286 316v181c0 8.398438-6.601562 15-15 15h-30c-8.402344 0-15-6.601562-15-15v-181c0-33-27.003906-60-60-60h-76v30c0 6-3.601562 11.398438-9.300781 13.800781-5.699219 2.398438-12 1.199219-16.199219-3.300781l-60-60c-6-5.699219-6-15.300781 0-21l60-60c4.199219-4.5 10.5-5.699219 16.199219-3.300781 5.699219 2.398437 9.300781 7.800781 9.300781 13.800781v30h76c21.898438 0 42.296875 6 60 15.898438 11.398438 6.902343 21.300781 15 30 24.902343 18.597656 21.300781 30 48.898438 30 79.199219zm0 0" fill="#64e1dc"/><path d="m286 316v181c0 8.398438-6.601562 15-15 15h-15v-275.199219c18.597656 21.300781 30 48.898438 30 79.199219zm0 0" fill="#00c8c8"/></svg>