<svg width="1440" height="1024" viewBox="0 0 1440 1024" fill="none" xmlns="http://www.w3.org/2000/svg">
<rect width="1440" height="1024" fill="black"/>
<rect opacity="0.7" x="889" y="966" width="48" height="44" rx="6" fill="#24292E"/>
<rect x="1275" y="292" width="34" height="37" rx="6" fill="#032F62"/>
<rect x="1275" y="338" width="34" height="37" rx="6" fill="#FE9A22"/>
<rect x="1275" y="385" width="34" height="37" rx="6" fill="#24292E"/>
<rect x="1275" y="431" width="34" height="37" rx="6" fill="#005CC5"/>
<rect x="1057" y="848" width="35" height="37" rx="6" fill="#005CC5"/>
<rect x="1275" y="524" width="34" height="37" rx="6" fill="#24292E"/>
<rect x="1057" y="941" width="35" height="37" rx="6" fill="#24292E"/>
<rect x="1275" y="570" width="34" height="37" rx="6" fill="#FE9A22"/>
<rect x="1057" y="987" width="35" height="37" rx="6" fill="#24292E"/>
<rect x="1275" y="709" width="34" height="37" rx="6" fill="#24292E"/>
<rect x="1275" y="755" width="34" height="37" rx="6" fill="#24292E"/>
<rect x="796" y="941" width="35" height="37" rx="6" fill="#24292E"/>
<rect x="1275" y="802" width="34" height="37" rx="6" fill="#005CC5"/>
<rect x="1275" y="848" width="34" height="37" rx="6" fill="#032F62"/>
<rect x="1275" y="894" width="34" height="37" rx="6" fill="#FE9A22"/>
<rect x="1275" y="941" width="34" height="37" rx="6" fill="#24292E"/>
<rect x="1101" y="385" width="34" height="37" rx="6" fill="#005CC5"/>
<rect x="883" y="894" width="35" height="37" rx="6" fill="#24292E"/>
<rect x="1101" y="570" width="34" height="37" rx="6" fill="#032F62"/>
<rect x="883" y="987" width="35" height="37" rx="6" fill="#032F62"/>
<rect x="1101" y="663" width="34" height="37" rx="6" fill="#24292E"/>
<rect x="1101" y="709" width="34" height="37" rx="6" fill="#005CC5"/>
<rect x="1101" y="802" width="34" height="37" rx="6" fill="#FE9A22"/>
<rect x="622" y="987" width="35" height="37" rx="6" fill="#FE9A22"/>
<rect x="1101" y="848" width="34" height="37" rx="6" fill="#24292E"/>
<rect x="1101" y="894" width="34" height="37" rx="6" fill="#032F62"/>
<rect x="1318" y="292" width="35" height="37" rx="6" fill="#24292E"/>
<rect x="1318" y="385" width="35" height="37" rx="6" fill="#24292E"/>
<rect x="1318" y="431" width="35" height="37" rx="6" fill="#032F62"/>
<rect x="1318" y="524" width="35" height="37" rx="6" fill="#24292E"/>
<rect x="1318" y="616" width="35" height="37" rx="6" fill="#24292E"/>
<rect x="1318" y="709" width="35" height="37" rx="6" fill="#005CC5"/>
<rect x="1144" y="755" width="35" height="37" rx="6" fill="#24292E"/>
<rect x="840" y="941" width="34" height="37" rx="6" fill="#FE9A22"/>
<rect x="840" y="987" width="34" height="37" rx="6" fill="#24292E"/>
<rect x="1318" y="848" width="35" height="37" rx="6" fill="#24292E"/>
<rect x="1318" y="941" width="35" height="37" rx="6" fill="#24292E"/>
<rect x="1318" y="987" width="35" height="37" rx="6" fill="#005CC5"/>
<rect x="1144" y="431" width="35" height="37" rx="6" fill="#032F62"/>
<rect x="1144" y="477" width="35" height="37" rx="6" fill="#24292E"/>
<rect x="927" y="894" width="34" height="37" rx="6" fill="#24292E"/>
<rect x="927" y="987" width="34" height="37" rx="6" fill="#032F62"/>
<rect x="666" y="941" width="34" height="37" rx="6" fill="#24292E"/>
<rect x="1144" y="802" width="35" height="37" rx="6" fill="#032F62"/>
<rect x="1144" y="848" width="35" height="37" rx="6" fill="#24292E"/>
<rect x="1144" y="941" width="35" height="37" rx="6" fill="#24292E"/>
<rect x="1144" y="987" width="35" height="37" rx="6" fill="#FE9A22"/>
<rect x="1362" y="338" width="34" height="37" rx="6" fill="#24292E"/>
<rect x="1362" y="431" width="34" height="37" rx="6" fill="#FE9A22"/>
<rect x="1362" y="477" width="34" height="37" rx="6" fill="#005CC5"/>
<rect x="1362" y="570" width="34" height="37" rx="6" fill="#032F62"/>
<rect x="1362" y="616" width="34" height="37" rx="6" fill="#24292E"/>
<rect x="1362" y="663" width="34" height="37" rx="6" fill="#24292E"/>
<rect x="1362" y="802" width="34" height="37" rx="6" fill="#FE9A22"/>
<rect x="1362" y="848" width="34" height="37" rx="6" fill="#24292E"/>
<rect x="1362" y="894" width="34" height="37" rx="6" fill="#005CC5"/>
<rect x="1362" y="987" width="34" height="37" rx="6" fill="#032F62"/>
<rect x="1188" y="338" width="34" height="37" rx="6" fill="#005CC5"/>
<rect x="1188" y="385" width="34" height="37" rx="6" fill="#24292E"/>
<rect x="970" y="894" width="35" height="37" rx="6" fill="#032F62"/>
<rect x="1188" y="524" width="34" height="37" rx="6" fill="#24292E"/>
<rect x="970" y="941" width="35" height="37" rx="6" fill="#FE9A22"/>
<rect x="1188" y="570" width="34" height="37" rx="6" fill="#24292E"/>
<rect x="970" y="987" width="35" height="37" rx="6" fill="#24292E"/>
<rect x="1188" y="663" width="34" height="37" rx="6" fill="#032F62"/>
<rect x="1188" y="709" width="34" height="37" rx="6" fill="#FE9A22"/>
<rect x="1188" y="755" width="34" height="37" rx="6" fill="#032F62"/>
<rect x="1188" y="802" width="34" height="37" rx="6" fill="#FE9A22"/>
<rect x="709" y="987" width="35" height="37" rx="6" fill="#24292E"/>
<rect x="1188" y="894" width="34" height="37" rx="6" fill="#24292E"/>
<rect x="1188" y="941" width="34" height="37" rx="6" fill="#032F62"/>
<rect x="1405" y="292" width="35" height="37" rx="6" fill="#005CC5"/>
<rect x="1405" y="338" width="35" height="37" rx="6" fill="#032F62"/>
<rect x="1405" y="385" width="35" height="37" rx="6" fill="#24292E"/>
<rect x="1405" y="477" width="35" height="37" rx="6" fill="#005CC5"/>
<rect x="1405" y="524" width="35" height="37" rx="6" fill="#FE9A22"/>
<rect x="1405" y="570" width="35" height="37" rx="6" fill="#005CC5"/>
<rect x="1405" y="663" width="35" height="37" rx="6" fill="#24292E"/>
<rect x="1405" y="755" width="35" height="37" rx="6" fill="#24292E"/>
<rect x="1405" y="802" width="35" height="37" rx="6" fill="#032F62"/>
<rect x="1405" y="987" width="35" height="37" rx="6" fill="#FE9A22"/>
<rect x="1231" y="292" width="35" height="37" rx="6" fill="#24292E"/>
<rect x="1231" y="338" width="35" height="37" rx="6" fill="#032F62"/>
<rect x="1231" y="431" width="35" height="37" rx="6" fill="#24292E"/>
<rect x="1014" y="848" width="34" height="37" rx="6" fill="#24292E"/>
<rect x="1231" y="477" width="35" height="37" rx="6" fill="#FE9A22"/>
<rect x="1014" y="894" width="34" height="37" rx="6" fill="#24292E"/>
<rect x="1231" y="524" width="35" height="37" rx="6" fill="#005CC5"/>
<rect x="1014" y="941" width="34" height="37" rx="6" fill="#005CC5"/>
<rect x="1231" y="616" width="35" height="37" rx="6" fill="#24292E"/>
<rect x="1231" y="663" width="35" height="37" rx="6" fill="#032F62"/>
<rect x="1231" y="709" width="35" height="37" rx="6" fill="#24292E"/>
<rect x="1231" y="802" width="35" height="37" rx="6" fill="#005CC5"/>
<rect x="753" y="987" width="34" height="37" rx="6" fill="#005CC5"/>
<rect x="1231" y="848" width="35" height="37" rx="6" fill="#24292E"/>
<rect x="1231" y="987" width="35" height="37" rx="6" fill="#005CC5"/>
</svg>
