<svg width="819" height="733" viewBox="0 0 819 733" fill="none" xmlns="http://www.w3.org/2000/svg">
<path opacity="0.7" d="M309.479 674.784H273.479C270.165 674.784 267.479 677.47 267.479 680.784V712.784C267.479 716.098 270.165 718.784 273.479 718.784H309.479C312.793 718.784 315.479 716.098 315.479 712.784V680.784C315.479 677.47 312.793 674.784 309.479 674.784Z" fill="#24292E"/>
<path d="M681.479 0.784119H659.479C656.165 0.784119 653.479 3.47041 653.479 6.78412V31.7841C653.479 35.0978 656.165 37.7841 659.479 37.7841H681.479C684.793 37.7841 687.479 35.0978 687.479 31.7841V6.78412C687.479 3.47041 684.793 0.784119 681.479 0.784119Z" fill="#032F62"/>
<path d="M681.479 46.7841H659.479C656.165 46.7841 653.479 49.4703 653.479 52.7841V77.7841C653.479 81.0978 656.165 83.7841 659.479 83.7841H681.479C684.793 83.7841 687.479 81.0978 687.479 77.7841V52.7841C687.479 49.4703 684.793 46.7841 681.479 46.7841Z" fill="#FE9A22"/>
<path d="M681.479 93.7841H659.479C656.165 93.7841 653.479 96.4703 653.479 99.7841V124.784C653.479 128.098 656.165 130.784 659.479 130.784H681.479C684.793 130.784 687.479 128.098 687.479 124.784V99.7841C687.479 96.4703 684.793 93.7841 681.479 93.7841Z" fill="#24292E"/>
<path d="M681.479 139.784H659.479C656.165 139.784 653.479 142.47 653.479 145.784V170.784C653.479 174.098 656.165 176.784 659.479 176.784H681.479C684.793 176.784 687.479 174.098 687.479 170.784V145.784C687.479 142.47 684.793 139.784 681.479 139.784Z" fill="#005CC5"/>
<path d="M464.479 556.784H441.479C438.165 556.784 435.479 559.47 435.479 562.784V587.784C435.479 591.098 438.165 593.784 441.479 593.784H464.479C467.793 593.784 470.479 591.098 470.479 587.784V562.784C470.479 559.47 467.793 556.784 464.479 556.784Z" fill="#005CC5"/>
<path d="M681.479 232.784H659.479C656.165 232.784 653.479 235.47 653.479 238.784V263.784C653.479 267.098 656.165 269.784 659.479 269.784H681.479C684.793 269.784 687.479 267.098 687.479 263.784V238.784C687.479 235.47 684.793 232.784 681.479 232.784Z" fill="#24292E"/>
<path d="M464.479 649.784H441.479C438.165 649.784 435.479 652.47 435.479 655.784V680.784C435.479 684.098 438.165 686.784 441.479 686.784H464.479C467.793 686.784 470.479 684.098 470.479 680.784V655.784C470.479 652.47 467.793 649.784 464.479 649.784Z" fill="#24292E"/>
<path d="M681.479 278.784H659.479C656.165 278.784 653.479 281.47 653.479 284.784V309.784C653.479 313.098 656.165 315.784 659.479 315.784H681.479C684.793 315.784 687.479 313.098 687.479 309.784V284.784C687.479 281.47 684.793 278.784 681.479 278.784Z" fill="#FE9A22"/>
<path d="M464.479 695.784H441.479C438.165 695.784 435.479 698.47 435.479 701.784V726.784C435.479 730.098 438.165 732.784 441.479 732.784H464.479C467.793 732.784 470.479 730.098 470.479 726.784V701.784C470.479 698.47 467.793 695.784 464.479 695.784Z" fill="#24292E"/>
<path d="M681.479 417.784H659.479C656.165 417.784 653.479 420.47 653.479 423.784V448.784C653.479 452.098 656.165 454.784 659.479 454.784H681.479C684.793 454.784 687.479 452.098 687.479 448.784V423.784C687.479 420.47 684.793 417.784 681.479 417.784Z" fill="#24292E"/>
<path d="M681.479 463.784H659.479C656.165 463.784 653.479 466.47 653.479 469.784V494.784C653.479 498.098 656.165 500.784 659.479 500.784H681.479C684.793 500.784 687.479 498.098 687.479 494.784V469.784C687.479 466.47 684.793 463.784 681.479 463.784Z" fill="#24292E"/>
<path d="M203.479 649.784H180.479C177.165 649.784 174.479 652.47 174.479 655.784V680.784C174.479 684.098 177.165 686.784 180.479 686.784H203.479C206.793 686.784 209.479 684.098 209.479 680.784V655.784C209.479 652.47 206.793 649.784 203.479 649.784Z" fill="#24292E"/>
<path d="M681.479 510.784H659.479C656.165 510.784 653.479 513.47 653.479 516.784V541.784C653.479 545.098 656.165 547.784 659.479 547.784H681.479C684.793 547.784 687.479 545.098 687.479 541.784V516.784C687.479 513.47 684.793 510.784 681.479 510.784Z" fill="#005CC5"/>
<path d="M681.479 556.784H659.479C656.165 556.784 653.479 559.47 653.479 562.784V587.784C653.479 591.098 656.165 593.784 659.479 593.784H681.479C684.793 593.784 687.479 591.098 687.479 587.784V562.784C687.479 559.47 684.793 556.784 681.479 556.784Z" fill="#032F62"/>
<path d="M681.479 602.784H659.479C656.165 602.784 653.479 605.47 653.479 608.784V633.784C653.479 637.098 656.165 639.784 659.479 639.784H681.479C684.793 639.784 687.479 637.098 687.479 633.784V608.784C687.479 605.47 684.793 602.784 681.479 602.784Z" fill="#FE9A22"/>
<path d="M681.479 649.784H659.479C656.165 649.784 653.479 652.47 653.479 655.784V680.784C653.479 684.098 656.165 686.784 659.479 686.784H681.479C684.793 686.784 687.479 684.098 687.479 680.784V655.784C687.479 652.47 684.793 649.784 681.479 649.784Z" fill="#24292E"/>
<path d="M507.479 93.7841H485.479C482.165 93.7841 479.479 96.4703 479.479 99.7841V124.784C479.479 128.098 482.165 130.784 485.479 130.784H507.479C510.793 130.784 513.479 128.098 513.479 124.784V99.7841C513.479 96.4703 510.793 93.7841 507.479 93.7841Z" fill="#005CC5"/>
<path d="M290.479 602.784H267.479C264.165 602.784 261.479 605.47 261.479 608.784V633.784C261.479 637.098 264.165 639.784 267.479 639.784H290.479C293.793 639.784 296.479 637.098 296.479 633.784V608.784C296.479 605.47 293.793 602.784 290.479 602.784Z" fill="#24292E"/>
<path d="M507.479 278.784H485.479C482.165 278.784 479.479 281.47 479.479 284.784V309.784C479.479 313.098 482.165 315.784 485.479 315.784H507.479C510.793 315.784 513.479 313.098 513.479 309.784V284.784C513.479 281.47 510.793 278.784 507.479 278.784Z" fill="#032F62"/>
<path d="M290.479 695.784H267.479C264.165 695.784 261.479 698.47 261.479 701.784V726.784C261.479 730.098 264.165 732.784 267.479 732.784H290.479C293.793 732.784 296.479 730.098 296.479 726.784V701.784C296.479 698.47 293.793 695.784 290.479 695.784Z" fill="#032F62"/>
<path d="M507.479 371.784H485.479C482.165 371.784 479.479 374.47 479.479 377.784V402.784C479.479 406.098 482.165 408.784 485.479 408.784H507.479C510.793 408.784 513.479 406.098 513.479 402.784V377.784C513.479 374.47 510.793 371.784 507.479 371.784Z" fill="#24292E"/>
<path d="M507.479 417.784H485.479C482.165 417.784 479.479 420.47 479.479 423.784V448.784C479.479 452.098 482.165 454.784 485.479 454.784H507.479C510.793 454.784 513.479 452.098 513.479 448.784V423.784C513.479 420.47 510.793 417.784 507.479 417.784Z" fill="#005CC5"/>
<path d="M507.479 510.784H485.479C482.165 510.784 479.479 513.47 479.479 516.784V541.784C479.479 545.098 482.165 547.784 485.479 547.784H507.479C510.793 547.784 513.479 545.098 513.479 541.784V516.784C513.479 513.47 510.793 510.784 507.479 510.784Z" fill="#FE9A22"/>
<path d="M29.4789 695.784H6.47891C3.1652 695.784 0.478912 698.47 0.478912 701.784V726.784C0.478912 730.098 3.1652 732.784 6.47891 732.784H29.4789C32.7926 732.784 35.4789 730.098 35.4789 726.784V701.784C35.4789 698.47 32.7926 695.784 29.4789 695.784Z" fill="#FE9A22"/>
<path d="M507.479 556.784H485.479C482.165 556.784 479.479 559.47 479.479 562.784V587.784C479.479 591.098 482.165 593.784 485.479 593.784H507.479C510.793 593.784 513.479 591.098 513.479 587.784V562.784C513.479 559.47 510.793 556.784 507.479 556.784Z" fill="#24292E"/>
<path d="M507.479 602.784H485.479C482.165 602.784 479.479 605.47 479.479 608.784V633.784C479.479 637.098 482.165 639.784 485.479 639.784H507.479C510.793 639.784 513.479 637.098 513.479 633.784V608.784C513.479 605.47 510.793 602.784 507.479 602.784Z" fill="#032F62"/>
<path d="M725.479 0.784119H702.479C699.165 0.784119 696.479 3.47041 696.479 6.78412V31.7841C696.479 35.0978 699.165 37.7841 702.479 37.7841H725.479C728.793 37.7841 731.479 35.0978 731.479 31.7841V6.78412C731.479 3.47041 728.793 0.784119 725.479 0.784119Z" fill="#24292E"/>
<path d="M725.479 93.7841H702.479C699.165 93.7841 696.479 96.4703 696.479 99.7841V124.784C696.479 128.098 699.165 130.784 702.479 130.784H725.479C728.793 130.784 731.479 128.098 731.479 124.784V99.7841C731.479 96.4703 728.793 93.7841 725.479 93.7841Z" fill="#24292E"/>
<path d="M725.479 139.784H702.479C699.165 139.784 696.479 142.47 696.479 145.784V170.784C696.479 174.098 699.165 176.784 702.479 176.784H725.479C728.793 176.784 731.479 174.098 731.479 170.784V145.784C731.479 142.47 728.793 139.784 725.479 139.784Z" fill="#032F62"/>
<path d="M725.479 232.784H702.479C699.165 232.784 696.479 235.47 696.479 238.784V263.784C696.479 267.098 699.165 269.784 702.479 269.784H725.479C728.793 269.784 731.479 267.098 731.479 263.784V238.784C731.479 235.47 728.793 232.784 725.479 232.784Z" fill="#24292E"/>
<path d="M725.479 324.784H702.479C699.165 324.784 696.479 327.47 696.479 330.784V355.784C696.479 359.098 699.165 361.784 702.479 361.784H725.479C728.793 361.784 731.479 359.098 731.479 355.784V330.784C731.479 327.47 728.793 324.784 725.479 324.784Z" fill="#24292E"/>
<path d="M725.479 417.784H702.479C699.165 417.784 696.479 420.47 696.479 423.784V448.784C696.479 452.098 699.165 454.784 702.479 454.784H725.479C728.793 454.784 731.479 452.098 731.479 448.784V423.784C731.479 420.47 728.793 417.784 725.479 417.784Z" fill="#005CC5"/>
<path d="M551.479 463.784H528.479C525.165 463.784 522.479 466.47 522.479 469.784V494.784C522.479 498.098 525.165 500.784 528.479 500.784H551.479C554.793 500.784 557.479 498.098 557.479 494.784V469.784C557.479 466.47 554.793 463.784 551.479 463.784Z" fill="#24292E"/>
<path d="M246.479 649.784H224.479C221.165 649.784 218.479 652.47 218.479 655.784V680.784C218.479 684.098 221.165 686.784 224.479 686.784H246.479C249.793 686.784 252.479 684.098 252.479 680.784V655.784C252.479 652.47 249.793 649.784 246.479 649.784Z" fill="#FE9A22"/>
<path d="M246.479 695.784H224.479C221.165 695.784 218.479 698.47 218.479 701.784V726.784C218.479 730.098 221.165 732.784 224.479 732.784H246.479C249.793 732.784 252.479 730.098 252.479 726.784V701.784C252.479 698.47 249.793 695.784 246.479 695.784Z" fill="#24292E"/>
<path d="M725.479 556.784H702.479C699.165 556.784 696.479 559.47 696.479 562.784V587.784C696.479 591.098 699.165 593.784 702.479 593.784H725.479C728.793 593.784 731.479 591.098 731.479 587.784V562.784C731.479 559.47 728.793 556.784 725.479 556.784Z" fill="#24292E"/>
<path d="M725.479 649.784H702.479C699.165 649.784 696.479 652.47 696.479 655.784V680.784C696.479 684.098 699.165 686.784 702.479 686.784H725.479C728.793 686.784 731.479 684.098 731.479 680.784V655.784C731.479 652.47 728.793 649.784 725.479 649.784Z" fill="#24292E"/>
<path d="M725.479 695.784H702.479C699.165 695.784 696.479 698.47 696.479 701.784V726.784C696.479 730.098 699.165 732.784 702.479 732.784H725.479C728.793 732.784 731.479 730.098 731.479 726.784V701.784C731.479 698.47 728.793 695.784 725.479 695.784Z" fill="#005CC5"/>
<path d="M551.479 139.784H528.479C525.165 139.784 522.479 142.47 522.479 145.784V170.784C522.479 174.098 525.165 176.784 528.479 176.784H551.479C554.793 176.784 557.479 174.098 557.479 170.784V145.784C557.479 142.47 554.793 139.784 551.479 139.784Z" fill="#032F62"/>
<path d="M551.479 185.784H528.479C525.165 185.784 522.479 188.47 522.479 191.784V216.784C522.479 220.098 525.165 222.784 528.479 222.784H551.479C554.793 222.784 557.479 220.098 557.479 216.784V191.784C557.479 188.47 554.793 185.784 551.479 185.784Z" fill="#24292E"/>
<path d="M333.479 602.784H311.479C308.165 602.784 305.479 605.47 305.479 608.784V633.784C305.479 637.098 308.165 639.784 311.479 639.784H333.479C336.793 639.784 339.479 637.098 339.479 633.784V608.784C339.479 605.47 336.793 602.784 333.479 602.784Z" fill="#24292E"/>
<path d="M333.479 695.784H311.479C308.165 695.784 305.479 698.47 305.479 701.784V726.784C305.479 730.098 308.165 732.784 311.479 732.784H333.479C336.793 732.784 339.479 730.098 339.479 726.784V701.784C339.479 698.47 336.793 695.784 333.479 695.784Z" fill="#032F62"/>
<path d="M72.4789 649.784H50.4789C47.1652 649.784 44.4789 652.47 44.4789 655.784V680.784C44.4789 684.098 47.1652 686.784 50.4789 686.784H72.4789C75.7926 686.784 78.4789 684.098 78.4789 680.784V655.784C78.4789 652.47 75.7926 649.784 72.4789 649.784Z" fill="#24292E"/>
<path d="M551.479 510.784H528.479C525.165 510.784 522.479 513.47 522.479 516.784V541.784C522.479 545.098 525.165 547.784 528.479 547.784H551.479C554.793 547.784 557.479 545.098 557.479 541.784V516.784C557.479 513.47 554.793 510.784 551.479 510.784Z" fill="#032F62"/>
<path d="M551.479 556.784H528.479C525.165 556.784 522.479 559.47 522.479 562.784V587.784C522.479 591.098 525.165 593.784 528.479 593.784H551.479C554.793 593.784 557.479 591.098 557.479 587.784V562.784C557.479 559.47 554.793 556.784 551.479 556.784Z" fill="#24292E"/>
<path d="M551.479 649.784H528.479C525.165 649.784 522.479 652.47 522.479 655.784V680.784C522.479 684.098 525.165 686.784 528.479 686.784H551.479C554.793 686.784 557.479 684.098 557.479 680.784V655.784C557.479 652.47 554.793 649.784 551.479 649.784Z" fill="#24292E"/>
<path d="M551.479 695.784H528.479C525.165 695.784 522.479 698.47 522.479 701.784V726.784C522.479 730.098 525.165 732.784 528.479 732.784H551.479C554.793 732.784 557.479 730.098 557.479 726.784V701.784C557.479 698.47 554.793 695.784 551.479 695.784Z" fill="#FE9A22"/>
<path d="M768.479 46.7841H746.479C743.165 46.7841 740.479 49.4703 740.479 52.7841V77.7841C740.479 81.0978 743.165 83.7841 746.479 83.7841H768.479C771.793 83.7841 774.479 81.0978 774.479 77.7841V52.7841C774.479 49.4703 771.793 46.7841 768.479 46.7841Z" fill="#24292E"/>
<path d="M768.479 139.784H746.479C743.165 139.784 740.479 142.47 740.479 145.784V170.784C740.479 174.098 743.165 176.784 746.479 176.784H768.479C771.793 176.784 774.479 174.098 774.479 170.784V145.784C774.479 142.47 771.793 139.784 768.479 139.784Z" fill="#FE9A22"/>
<path d="M768.479 185.784H746.479C743.165 185.784 740.479 188.47 740.479 191.784V216.784C740.479 220.098 743.165 222.784 746.479 222.784H768.479C771.793 222.784 774.479 220.098 774.479 216.784V191.784C774.479 188.47 771.793 185.784 768.479 185.784Z" fill="#005CC5"/>
<path d="M768.479 278.784H746.479C743.165 278.784 740.479 281.47 740.479 284.784V309.784C740.479 313.098 743.165 315.784 746.479 315.784H768.479C771.793 315.784 774.479 313.098 774.479 309.784V284.784C774.479 281.47 771.793 278.784 768.479 278.784Z" fill="#032F62"/>
<path d="M768.479 324.784H746.479C743.165 324.784 740.479 327.47 740.479 330.784V355.784C740.479 359.098 743.165 361.784 746.479 361.784H768.479C771.793 361.784 774.479 359.098 774.479 355.784V330.784C774.479 327.47 771.793 324.784 768.479 324.784Z" fill="#24292E"/>
<path d="M768.479 371.784H746.479C743.165 371.784 740.479 374.47 740.479 377.784V402.784C740.479 406.098 743.165 408.784 746.479 408.784H768.479C771.793 408.784 774.479 406.098 774.479 402.784V377.784C774.479 374.47 771.793 371.784 768.479 371.784Z" fill="#24292E"/>
<path d="M768.479 510.784H746.479C743.165 510.784 740.479 513.47 740.479 516.784V541.784C740.479 545.098 743.165 547.784 746.479 547.784H768.479C771.793 547.784 774.479 545.098 774.479 541.784V516.784C774.479 513.47 771.793 510.784 768.479 510.784Z" fill="#FE9A22"/>
<path d="M768.479 556.784H746.479C743.165 556.784 740.479 559.47 740.479 562.784V587.784C740.479 591.098 743.165 593.784 746.479 593.784H768.479C771.793 593.784 774.479 591.098 774.479 587.784V562.784C774.479 559.47 771.793 556.784 768.479 556.784Z" fill="#24292E"/>
<path d="M768.479 602.784H746.479C743.165 602.784 740.479 605.47 740.479 608.784V633.784C740.479 637.098 743.165 639.784 746.479 639.784H768.479C771.793 639.784 774.479 637.098 774.479 633.784V608.784C774.479 605.47 771.793 602.784 768.479 602.784Z" fill="#005CC5"/>
<path d="M768.479 695.784H746.479C743.165 695.784 740.479 698.47 740.479 701.784V726.784C740.479 730.098 743.165 732.784 746.479 732.784H768.479C771.793 732.784 774.479 730.098 774.479 726.784V701.784C774.479 698.47 771.793 695.784 768.479 695.784Z" fill="#032F62"/>
<path d="M594.479 46.7841H572.479C569.165 46.7841 566.479 49.4703 566.479 52.7841V77.7841C566.479 81.0978 569.165 83.7841 572.479 83.7841H594.479C597.793 83.7841 600.479 81.0978 600.479 77.7841V52.7841C600.479 49.4703 597.793 46.7841 594.479 46.7841Z" fill="#005CC5"/>
<path d="M594.479 93.7841H572.479C569.165 93.7841 566.479 96.4703 566.479 99.7841V124.784C566.479 128.098 569.165 130.784 572.479 130.784H594.479C597.793 130.784 600.479 128.098 600.479 124.784V99.7841C600.479 96.4703 597.793 93.7841 594.479 93.7841Z" fill="#24292E"/>
<path d="M377.479 602.784H354.479C351.165 602.784 348.479 605.47 348.479 608.784V633.784C348.479 637.098 351.165 639.784 354.479 639.784H377.479C380.793 639.784 383.479 637.098 383.479 633.784V608.784C383.479 605.47 380.793 602.784 377.479 602.784Z" fill="#032F62"/>
<path d="M594.479 232.784H572.479C569.165 232.784 566.479 235.47 566.479 238.784V263.784C566.479 267.098 569.165 269.784 572.479 269.784H594.479C597.793 269.784 600.479 267.098 600.479 263.784V238.784C600.479 235.47 597.793 232.784 594.479 232.784Z" fill="#24292E"/>
<path d="M377.479 649.784H354.479C351.165 649.784 348.479 652.47 348.479 655.784V680.784C348.479 684.098 351.165 686.784 354.479 686.784H377.479C380.793 686.784 383.479 684.098 383.479 680.784V655.784C383.479 652.47 380.793 649.784 377.479 649.784Z" fill="#FE9A22"/>
<path d="M594.479 278.784H572.479C569.165 278.784 566.479 281.47 566.479 284.784V309.784C566.479 313.098 569.165 315.784 572.479 315.784H594.479C597.793 315.784 600.479 313.098 600.479 309.784V284.784C600.479 281.47 597.793 278.784 594.479 278.784Z" fill="#24292E"/>
<path d="M377.479 695.784H354.479C351.165 695.784 348.479 698.47 348.479 701.784V726.784C348.479 730.098 351.165 732.784 354.479 732.784H377.479C380.793 732.784 383.479 730.098 383.479 726.784V701.784C383.479 698.47 380.793 695.784 377.479 695.784Z" fill="#24292E"/>
<path d="M594.479 371.784H572.479C569.165 371.784 566.479 374.47 566.479 377.784V402.784C566.479 406.098 569.165 408.784 572.479 408.784H594.479C597.793 408.784 600.479 406.098 600.479 402.784V377.784C600.479 374.47 597.793 371.784 594.479 371.784Z" fill="#032F62"/>
<path d="M594.479 417.784H572.479C569.165 417.784 566.479 420.47 566.479 423.784V448.784C566.479 452.098 569.165 454.784 572.479 454.784H594.479C597.793 454.784 600.479 452.098 600.479 448.784V423.784C600.479 420.47 597.793 417.784 594.479 417.784Z" fill="#FE9A22"/>
<path d="M594.479 463.784H572.479C569.165 463.784 566.479 466.47 566.479 469.784V494.784C566.479 498.098 569.165 500.784 572.479 500.784H594.479C597.793 500.784 600.479 498.098 600.479 494.784V469.784C600.479 466.47 597.793 463.784 594.479 463.784Z" fill="#032F62"/>
<path d="M594.479 510.784H572.479C569.165 510.784 566.479 513.47 566.479 516.784V541.784C566.479 545.098 569.165 547.784 572.479 547.784H594.479C597.793 547.784 600.479 545.098 600.479 541.784V516.784C600.479 513.47 597.793 510.784 594.479 510.784Z" fill="#FE9A22"/>
<path d="M116.479 695.784H93.4789C90.1652 695.784 87.4789 698.47 87.4789 701.784V726.784C87.4789 730.098 90.1652 732.784 93.4789 732.784H116.479C119.793 732.784 122.479 730.098 122.479 726.784V701.784C122.479 698.47 119.793 695.784 116.479 695.784Z" fill="#24292E"/>
<path d="M594.479 602.784H572.479C569.165 602.784 566.479 605.47 566.479 608.784V633.784C566.479 637.098 569.165 639.784 572.479 639.784H594.479C597.793 639.784 600.479 637.098 600.479 633.784V608.784C600.479 605.47 597.793 602.784 594.479 602.784Z" fill="#24292E"/>
<path d="M594.479 649.784H572.479C569.165 649.784 566.479 652.47 566.479 655.784V680.784C566.479 684.098 569.165 686.784 572.479 686.784H594.479C597.793 686.784 600.479 684.098 600.479 680.784V655.784C600.479 652.47 597.793 649.784 594.479 649.784Z" fill="#032F62"/>
<path d="M812.479 0.784119H789.479C786.165 0.784119 783.479 3.47041 783.479 6.78412V31.7841C783.479 35.0978 786.165 37.7841 789.479 37.7841H812.479C815.793 37.7841 818.479 35.0978 818.479 31.7841V6.78412C818.479 3.47041 815.793 0.784119 812.479 0.784119Z" fill="#005CC5"/>
<path d="M812.479 46.7841H789.479C786.165 46.7841 783.479 49.4703 783.479 52.7841V77.7841C783.479 81.0978 786.165 83.7841 789.479 83.7841H812.479C815.793 83.7841 818.479 81.0978 818.479 77.7841V52.7841C818.479 49.4703 815.793 46.7841 812.479 46.7841Z" fill="#032F62"/>
<path d="M812.479 93.7841H789.479C786.165 93.7841 783.479 96.4703 783.479 99.7841V124.784C783.479 128.098 786.165 130.784 789.479 130.784H812.479C815.793 130.784 818.479 128.098 818.479 124.784V99.7841C818.479 96.4703 815.793 93.7841 812.479 93.7841Z" fill="#24292E"/>
<path d="M812.479 185.784H789.479C786.165 185.784 783.479 188.47 783.479 191.784V216.784C783.479 220.098 786.165 222.784 789.479 222.784H812.479C815.793 222.784 818.479 220.098 818.479 216.784V191.784C818.479 188.47 815.793 185.784 812.479 185.784Z" fill="#005CC5"/>
<path d="M812.479 232.784H789.479C786.165 232.784 783.479 235.47 783.479 238.784V263.784C783.479 267.098 786.165 269.784 789.479 269.784H812.479C815.793 269.784 818.479 267.098 818.479 263.784V238.784C818.479 235.47 815.793 232.784 812.479 232.784Z" fill="#FE9A22"/>
<path d="M812.479 278.784H789.479C786.165 278.784 783.479 281.47 783.479 284.784V309.784C783.479 313.098 786.165 315.784 789.479 315.784H812.479C815.793 315.784 818.479 313.098 818.479 309.784V284.784C818.479 281.47 815.793 278.784 812.479 278.784Z" fill="#005CC5"/>
<path d="M812.479 371.784H789.479C786.165 371.784 783.479 374.47 783.479 377.784V402.784C783.479 406.098 786.165 408.784 789.479 408.784H812.479C815.793 408.784 818.479 406.098 818.479 402.784V377.784C818.479 374.47 815.793 371.784 812.479 371.784Z" fill="#24292E"/>
<path d="M812.479 463.784H789.479C786.165 463.784 783.479 466.47 783.479 469.784V494.784C783.479 498.098 786.165 500.784 789.479 500.784H812.479C815.793 500.784 818.479 498.098 818.479 494.784V469.784C818.479 466.47 815.793 463.784 812.479 463.784Z" fill="#24292E"/>
<path d="M812.479 510.784H789.479C786.165 510.784 783.479 513.47 783.479 516.784V541.784C783.479 545.098 786.165 547.784 789.479 547.784H812.479C815.793 547.784 818.479 545.098 818.479 541.784V516.784C818.479 513.47 815.793 510.784 812.479 510.784Z" fill="#032F62"/>
<path d="M812.479 695.784H789.479C786.165 695.784 783.479 698.47 783.479 701.784V726.784C783.479 730.098 786.165 732.784 789.479 732.784H812.479C815.793 732.784 818.479 730.098 818.479 726.784V701.784C818.479 698.47 815.793 695.784 812.479 695.784Z" fill="#FE9A22"/>
<path d="M638.479 0.784119H615.479C612.165 0.784119 609.479 3.47041 609.479 6.78412V31.7841C609.479 35.0978 612.165 37.7841 615.479 37.7841H638.479C641.793 37.7841 644.479 35.0978 644.479 31.7841V6.78412C644.479 3.47041 641.793 0.784119 638.479 0.784119Z" fill="#24292E"/>
<path d="M638.479 46.7841H615.479C612.165 46.7841 609.479 49.4703 609.479 52.7841V77.7841C609.479 81.0978 612.165 83.7841 615.479 83.7841H638.479C641.793 83.7841 644.479 81.0978 644.479 77.7841V52.7841C644.479 49.4703 641.793 46.7841 638.479 46.7841Z" fill="#032F62"/>
<path d="M638.479 139.784H615.479C612.165 139.784 609.479 142.47 609.479 145.784V170.784C609.479 174.098 612.165 176.784 615.479 176.784H638.479C641.793 176.784 644.479 174.098 644.479 170.784V145.784C644.479 142.47 641.793 139.784 638.479 139.784Z" fill="#24292E"/>
<path d="M420.479 556.784H398.479C395.165 556.784 392.479 559.47 392.479 562.784V587.784C392.479 591.098 395.165 593.784 398.479 593.784H420.479C423.793 593.784 426.479 591.098 426.479 587.784V562.784C426.479 559.47 423.793 556.784 420.479 556.784Z" fill="#24292E"/>
<path d="M638.479 185.784H615.479C612.165 185.784 609.479 188.47 609.479 191.784V216.784C609.479 220.098 612.165 222.784 615.479 222.784H638.479C641.793 222.784 644.479 220.098 644.479 216.784V191.784C644.479 188.47 641.793 185.784 638.479 185.784Z" fill="#FE9A22"/>
<path d="M420.479 602.784H398.479C395.165 602.784 392.479 605.47 392.479 608.784V633.784C392.479 637.098 395.165 639.784 398.479 639.784H420.479C423.793 639.784 426.479 637.098 426.479 633.784V608.784C426.479 605.47 423.793 602.784 420.479 602.784Z" fill="#24292E"/>
<path d="M638.479 232.784H615.479C612.165 232.784 609.479 235.47 609.479 238.784V263.784C609.479 267.098 612.165 269.784 615.479 269.784H638.479C641.793 269.784 644.479 267.098 644.479 263.784V238.784C644.479 235.47 641.793 232.784 638.479 232.784Z" fill="#005CC5"/>
<path d="M420.479 649.784H398.479C395.165 649.784 392.479 652.47 392.479 655.784V680.784C392.479 684.098 395.165 686.784 398.479 686.784H420.479C423.793 686.784 426.479 684.098 426.479 680.784V655.784C426.479 652.47 423.793 649.784 420.479 649.784Z" fill="#005CC5"/>
<path d="M638.479 324.784H615.479C612.165 324.784 609.479 327.47 609.479 330.784V355.784C609.479 359.098 612.165 361.784 615.479 361.784H638.479C641.793 361.784 644.479 359.098 644.479 355.784V330.784C644.479 327.47 641.793 324.784 638.479 324.784Z" fill="#24292E"/>
<path d="M638.479 371.784H615.479C612.165 371.784 609.479 374.47 609.479 377.784V402.784C609.479 406.098 612.165 408.784 615.479 408.784H638.479C641.793 408.784 644.479 406.098 644.479 402.784V377.784C644.479 374.47 641.793 371.784 638.479 371.784Z" fill="#032F62"/>
<path d="M638.479 417.784H615.479C612.165 417.784 609.479 420.47 609.479 423.784V448.784C609.479 452.098 612.165 454.784 615.479 454.784H638.479C641.793 454.784 644.479 452.098 644.479 448.784V423.784C644.479 420.47 641.793 417.784 638.479 417.784Z" fill="#24292E"/>
<path d="M638.479 510.784H615.479C612.165 510.784 609.479 513.47 609.479 516.784V541.784C609.479 545.098 612.165 547.784 615.479 547.784H638.479C641.793 547.784 644.479 545.098 644.479 541.784V516.784C644.479 513.47 641.793 510.784 638.479 510.784Z" fill="#005CC5"/>
<path d="M159.479 695.784H137.479C134.165 695.784 131.479 698.47 131.479 701.784V726.784C131.479 730.098 134.165 732.784 137.479 732.784H159.479C162.793 732.784 165.479 730.098 165.479 726.784V701.784C165.479 698.47 162.793 695.784 159.479 695.784Z" fill="#005CC5"/>
<path d="M638.479 556.784H615.479C612.165 556.784 609.479 559.47 609.479 562.784V587.784C609.479 591.098 612.165 593.784 615.479 593.784H638.479C641.793 593.784 644.479 591.098 644.479 587.784V562.784C644.479 559.47 641.793 556.784 638.479 556.784Z" fill="#24292E"/>
<path d="M638.479 695.784H615.479C612.165 695.784 609.479 698.47 609.479 701.784V726.784C609.479 730.098 612.165 732.784 615.479 732.784H638.479C641.793 732.784 644.479 730.098 644.479 726.784V701.784C644.479 698.47 641.793 695.784 638.479 695.784Z" fill="#005CC5"/>
</svg>
