<svg xmlns="http://www.w3.org/2000/svg" width="819" height="733" viewBox="0 0 819 733" fill="none">
<path opacity="0.7" d="M309.799 674.711H273.799C270.485 674.711 267.799 677.398 267.799 680.711V712.711C267.799 716.025 270.485 718.711 273.799 718.711H309.799C313.112 718.711 315.799 716.025 315.799 712.711V680.711C315.799 677.398 313.112 674.711 309.799 674.711Z" fill="#24292E"/>
<path d="M681.799 0.711426H659.799C656.485 0.711426 653.799 3.39772 653.799 6.71143V31.7114C653.799 35.0251 656.485 37.7114 659.799 37.7114H681.799C685.112 37.7114 687.799 35.0251 687.799 31.7114V6.71143C687.799 3.39772 685.112 0.711426 681.799 0.711426Z" fill="#032F62"/>
<path d="M681.799 46.7114H659.799C656.485 46.7114 653.799 49.3977 653.799 52.7114V77.7114C653.799 81.0251 656.485 83.7114 659.799 83.7114H681.799C685.112 83.7114 687.799 81.0251 687.799 77.7114V52.7114C687.799 49.3977 685.112 46.7114 681.799 46.7114Z" fill="#FE9A22"/>
<path d="M681.799 93.7114H659.799C656.485 93.7114 653.799 96.3977 653.799 99.7114V124.711C653.799 128.025 656.485 130.711 659.799 130.711H681.799C685.112 130.711 687.799 128.025 687.799 124.711V99.7114C687.799 96.3977 685.112 93.7114 681.799 93.7114Z" fill="#24292E"/>
<path d="M681.799 139.711H659.799C656.485 139.711 653.799 142.398 653.799 145.711V170.711C653.799 174.025 656.485 176.711 659.799 176.711H681.799C685.112 176.711 687.799 174.025 687.799 170.711V145.711C687.799 142.398 685.112 139.711 681.799 139.711Z" fill="#005CC5"/>
<path d="M464.799 556.711H441.799C438.485 556.711 435.799 559.398 435.799 562.711V587.711C435.799 591.025 438.485 593.711 441.799 593.711H464.799C468.112 593.711 470.799 591.025 470.799 587.711V562.711C470.799 559.398 468.112 556.711 464.799 556.711Z" fill="#005CC5"/>
<path d="M681.799 232.711H659.799C656.485 232.711 653.799 235.398 653.799 238.711V263.711C653.799 267.025 656.485 269.711 659.799 269.711H681.799C685.112 269.711 687.799 267.025 687.799 263.711V238.711C687.799 235.398 685.112 232.711 681.799 232.711Z" fill="#24292E"/>
<path d="M464.799 649.711H441.799C438.485 649.711 435.799 652.398 435.799 655.711V680.711C435.799 684.025 438.485 686.711 441.799 686.711H464.799C468.112 686.711 470.799 684.025 470.799 680.711V655.711C470.799 652.398 468.112 649.711 464.799 649.711Z" fill="#24292E"/>
<path d="M681.799 278.711H659.799C656.485 278.711 653.799 281.398 653.799 284.711V309.711C653.799 313.025 656.485 315.711 659.799 315.711H681.799C685.112 315.711 687.799 313.025 687.799 309.711V284.711C687.799 281.398 685.112 278.711 681.799 278.711Z" fill="#FE9A22"/>
<path d="M464.799 695.711H441.799C438.485 695.711 435.799 698.398 435.799 701.711V726.711C435.799 730.025 438.485 732.711 441.799 732.711H464.799C468.112 732.711 470.799 730.025 470.799 726.711V701.711C470.799 698.398 468.112 695.711 464.799 695.711Z" fill="#24292E"/>
<path d="M681.799 417.711H659.799C656.485 417.711 653.799 420.398 653.799 423.711V448.711C653.799 452.025 656.485 454.711 659.799 454.711H681.799C685.112 454.711 687.799 452.025 687.799 448.711V423.711C687.799 420.398 685.112 417.711 681.799 417.711Z" fill="#24292E"/>
<path d="M681.799 463.711H659.799C656.485 463.711 653.799 466.398 653.799 469.711V494.711C653.799 498.025 656.485 500.711 659.799 500.711H681.799C685.112 500.711 687.799 498.025 687.799 494.711V469.711C687.799 466.398 685.112 463.711 681.799 463.711Z" fill="#24292E"/>
<path d="M203.799 649.711H180.799C177.485 649.711 174.799 652.398 174.799 655.711V680.711C174.799 684.025 177.485 686.711 180.799 686.711H203.799C207.112 686.711 209.799 684.025 209.799 680.711V655.711C209.799 652.398 207.112 649.711 203.799 649.711Z" fill="#24292E"/>
<path d="M681.799 510.711H659.799C656.485 510.711 653.799 513.398 653.799 516.711V541.711C653.799 545.025 656.485 547.711 659.799 547.711H681.799C685.112 547.711 687.799 545.025 687.799 541.711V516.711C687.799 513.398 685.112 510.711 681.799 510.711Z" fill="#005CC5"/>
<path d="M681.799 556.711H659.799C656.485 556.711 653.799 559.398 653.799 562.711V587.711C653.799 591.025 656.485 593.711 659.799 593.711H681.799C685.112 593.711 687.799 591.025 687.799 587.711V562.711C687.799 559.398 685.112 556.711 681.799 556.711Z" fill="#032F62"/>
<path d="M681.799 602.711H659.799C656.485 602.711 653.799 605.398 653.799 608.711V633.711C653.799 637.025 656.485 639.711 659.799 639.711H681.799C685.112 639.711 687.799 637.025 687.799 633.711V608.711C687.799 605.398 685.112 602.711 681.799 602.711Z" fill="#FE9A22"/>
<path d="M681.799 649.711H659.799C656.485 649.711 653.799 652.398 653.799 655.711V680.711C653.799 684.025 656.485 686.711 659.799 686.711H681.799C685.112 686.711 687.799 684.025 687.799 680.711V655.711C687.799 652.398 685.112 649.711 681.799 649.711Z" fill="#24292E"/>
<path d="M507.799 93.7114H485.799C482.485 93.7114 479.799 96.3977 479.799 99.7114V124.711C479.799 128.025 482.485 130.711 485.799 130.711H507.799C511.112 130.711 513.799 128.025 513.799 124.711V99.7114C513.799 96.3977 511.112 93.7114 507.799 93.7114Z" fill="#005CC5"/>
<path d="M290.799 602.711H267.799C264.485 602.711 261.799 605.398 261.799 608.711V633.711C261.799 637.025 264.485 639.711 267.799 639.711H290.799C294.112 639.711 296.799 637.025 296.799 633.711V608.711C296.799 605.398 294.112 602.711 290.799 602.711Z" fill="#24292E"/>
<path d="M507.799 278.711H485.799C482.485 278.711 479.799 281.398 479.799 284.711V309.711C479.799 313.025 482.485 315.711 485.799 315.711H507.799C511.112 315.711 513.799 313.025 513.799 309.711V284.711C513.799 281.398 511.112 278.711 507.799 278.711Z" fill="#032F62"/>
<path d="M290.799 695.711H267.799C264.485 695.711 261.799 698.398 261.799 701.711V726.711C261.799 730.025 264.485 732.711 267.799 732.711H290.799C294.112 732.711 296.799 730.025 296.799 726.711V701.711C296.799 698.398 294.112 695.711 290.799 695.711Z" fill="#032F62"/>
<path d="M507.799 371.711H485.799C482.485 371.711 479.799 374.398 479.799 377.711V402.711C479.799 406.025 482.485 408.711 485.799 408.711H507.799C511.112 408.711 513.799 406.025 513.799 402.711V377.711C513.799 374.398 511.112 371.711 507.799 371.711Z" fill="#24292E"/>
<path d="M507.799 417.711H485.799C482.485 417.711 479.799 420.398 479.799 423.711V448.711C479.799 452.025 482.485 454.711 485.799 454.711H507.799C511.112 454.711 513.799 452.025 513.799 448.711V423.711C513.799 420.398 511.112 417.711 507.799 417.711Z" fill="#005CC5"/>
<path d="M507.799 510.711H485.799C482.485 510.711 479.799 513.398 479.799 516.711V541.711C479.799 545.025 482.485 547.711 485.799 547.711H507.799C511.112 547.711 513.799 545.025 513.799 541.711V516.711C513.799 513.398 511.112 510.711 507.799 510.711Z" fill="#FE9A22"/>
<path d="M29.7986 695.711H6.79855C3.48484 695.711 0.798553 698.398 0.798553 701.711V726.711C0.798553 730.025 3.48484 732.711 6.79855 732.711H29.7986C33.1123 732.711 35.7986 730.025 35.7986 726.711V701.711C35.7986 698.398 33.1123 695.711 29.7986 695.711Z" fill="#FE9A22"/>
<path d="M507.799 556.711H485.799C482.485 556.711 479.799 559.398 479.799 562.711V587.711C479.799 591.025 482.485 593.711 485.799 593.711H507.799C511.112 593.711 513.799 591.025 513.799 587.711V562.711C513.799 559.398 511.112 556.711 507.799 556.711Z" fill="#24292E"/>
<path d="M507.799 602.711H485.799C482.485 602.711 479.799 605.398 479.799 608.711V633.711C479.799 637.025 482.485 639.711 485.799 639.711H507.799C511.112 639.711 513.799 637.025 513.799 633.711V608.711C513.799 605.398 511.112 602.711 507.799 602.711Z" fill="#032F62"/>
<path d="M725.799 0.711426H702.799C699.485 0.711426 696.799 3.39772 696.799 6.71143V31.7114C696.799 35.0251 699.485 37.7114 702.799 37.7114H725.799C729.112 37.7114 731.799 35.0251 731.799 31.7114V6.71143C731.799 3.39772 729.112 0.711426 725.799 0.711426Z" fill="#24292E"/>
<path d="M725.799 93.7114H702.799C699.485 93.7114 696.799 96.3977 696.799 99.7114V124.711C696.799 128.025 699.485 130.711 702.799 130.711H725.799C729.112 130.711 731.799 128.025 731.799 124.711V99.7114C731.799 96.3977 729.112 93.7114 725.799 93.7114Z" fill="#24292E"/>
<path d="M725.799 139.711H702.799C699.485 139.711 696.799 142.398 696.799 145.711V170.711C696.799 174.025 699.485 176.711 702.799 176.711H725.799C729.112 176.711 731.799 174.025 731.799 170.711V145.711C731.799 142.398 729.112 139.711 725.799 139.711Z" fill="#032F62"/>
<path d="M725.799 232.711H702.799C699.485 232.711 696.799 235.398 696.799 238.711V263.711C696.799 267.025 699.485 269.711 702.799 269.711H725.799C729.112 269.711 731.799 267.025 731.799 263.711V238.711C731.799 235.398 729.112 232.711 725.799 232.711Z" fill="#24292E"/>
<path d="M725.799 324.711H702.799C699.485 324.711 696.799 327.398 696.799 330.711V355.711C696.799 359.025 699.485 361.711 702.799 361.711H725.799C729.112 361.711 731.799 359.025 731.799 355.711V330.711C731.799 327.398 729.112 324.711 725.799 324.711Z" fill="#24292E"/>
<path d="M725.799 417.711H702.799C699.485 417.711 696.799 420.398 696.799 423.711V448.711C696.799 452.025 699.485 454.711 702.799 454.711H725.799C729.112 454.711 731.799 452.025 731.799 448.711V423.711C731.799 420.398 729.112 417.711 725.799 417.711Z" fill="#005CC5"/>
<path d="M551.799 463.711H528.799C525.485 463.711 522.799 466.398 522.799 469.711V494.711C522.799 498.025 525.485 500.711 528.799 500.711H551.799C555.112 500.711 557.799 498.025 557.799 494.711V469.711C557.799 466.398 555.112 463.711 551.799 463.711Z" fill="#24292E"/>
<path d="M246.799 649.711H224.799C221.485 649.711 218.799 652.398 218.799 655.711V680.711C218.799 684.025 221.485 686.711 224.799 686.711H246.799C250.112 686.711 252.799 684.025 252.799 680.711V655.711C252.799 652.398 250.112 649.711 246.799 649.711Z" fill="#FE9A22"/>
<path d="M246.799 695.711H224.799C221.485 695.711 218.799 698.398 218.799 701.711V726.711C218.799 730.025 221.485 732.711 224.799 732.711H246.799C250.112 732.711 252.799 730.025 252.799 726.711V701.711C252.799 698.398 250.112 695.711 246.799 695.711Z" fill="#24292E"/>
<path d="M725.799 556.711H702.799C699.485 556.711 696.799 559.398 696.799 562.711V587.711C696.799 591.025 699.485 593.711 702.799 593.711H725.799C729.112 593.711 731.799 591.025 731.799 587.711V562.711C731.799 559.398 729.112 556.711 725.799 556.711Z" fill="#24292E"/>
<path d="M725.799 649.711H702.799C699.485 649.711 696.799 652.398 696.799 655.711V680.711C696.799 684.025 699.485 686.711 702.799 686.711H725.799C729.112 686.711 731.799 684.025 731.799 680.711V655.711C731.799 652.398 729.112 649.711 725.799 649.711Z" fill="#24292E"/>
<path d="M725.799 695.711H702.799C699.485 695.711 696.799 698.398 696.799 701.711V726.711C696.799 730.025 699.485 732.711 702.799 732.711H725.799C729.112 732.711 731.799 730.025 731.799 726.711V701.711C731.799 698.398 729.112 695.711 725.799 695.711Z" fill="#005CC5"/>
<path d="M551.799 139.711H528.799C525.485 139.711 522.799 142.398 522.799 145.711V170.711C522.799 174.025 525.485 176.711 528.799 176.711H551.799C555.112 176.711 557.799 174.025 557.799 170.711V145.711C557.799 142.398 555.112 139.711 551.799 139.711Z" fill="#032F62"/>
<path d="M551.799 185.711H528.799C525.485 185.711 522.799 188.398 522.799 191.711V216.711C522.799 220.025 525.485 222.711 528.799 222.711H551.799C555.112 222.711 557.799 220.025 557.799 216.711V191.711C557.799 188.398 555.112 185.711 551.799 185.711Z" fill="#24292E"/>
<path d="M333.799 602.711H311.799C308.485 602.711 305.799 605.398 305.799 608.711V633.711C305.799 637.025 308.485 639.711 311.799 639.711H333.799C337.112 639.711 339.799 637.025 339.799 633.711V608.711C339.799 605.398 337.112 602.711 333.799 602.711Z" fill="#24292E"/>
<path d="M333.799 695.711H311.799C308.485 695.711 305.799 698.398 305.799 701.711V726.711C305.799 730.025 308.485 732.711 311.799 732.711H333.799C337.112 732.711 339.799 730.025 339.799 726.711V701.711C339.799 698.398 337.112 695.711 333.799 695.711Z" fill="#032F62"/>
<path d="M72.7986 649.711H50.7986C47.4848 649.711 44.7986 652.398 44.7986 655.711V680.711C44.7986 684.025 47.4848 686.711 50.7986 686.711H72.7986C76.1123 686.711 78.7986 684.025 78.7986 680.711V655.711C78.7986 652.398 76.1123 649.711 72.7986 649.711Z" fill="#24292E"/>
<path d="M551.799 510.711H528.799C525.485 510.711 522.799 513.398 522.799 516.711V541.711C522.799 545.025 525.485 547.711 528.799 547.711H551.799C555.112 547.711 557.799 545.025 557.799 541.711V516.711C557.799 513.398 555.112 510.711 551.799 510.711Z" fill="#032F62"/>
<path d="M551.799 556.711H528.799C525.485 556.711 522.799 559.398 522.799 562.711V587.711C522.799 591.025 525.485 593.711 528.799 593.711H551.799C555.112 593.711 557.799 591.025 557.799 587.711V562.711C557.799 559.398 555.112 556.711 551.799 556.711Z" fill="#24292E"/>
<path d="M551.799 649.711H528.799C525.485 649.711 522.799 652.398 522.799 655.711V680.711C522.799 684.025 525.485 686.711 528.799 686.711H551.799C555.112 686.711 557.799 684.025 557.799 680.711V655.711C557.799 652.398 555.112 649.711 551.799 649.711Z" fill="#24292E"/>
<path d="M551.799 695.711H528.799C525.485 695.711 522.799 698.398 522.799 701.711V726.711C522.799 730.025 525.485 732.711 528.799 732.711H551.799C555.112 732.711 557.799 730.025 557.799 726.711V701.711C557.799 698.398 555.112 695.711 551.799 695.711Z" fill="#FE9A22"/>
<path d="M768.799 46.7114H746.799C743.485 46.7114 740.799 49.3977 740.799 52.7114V77.7114C740.799 81.0251 743.485 83.7114 746.799 83.7114H768.799C772.112 83.7114 774.799 81.0251 774.799 77.7114V52.7114C774.799 49.3977 772.112 46.7114 768.799 46.7114Z" fill="#24292E"/>
<path d="M768.799 139.711H746.799C743.485 139.711 740.799 142.398 740.799 145.711V170.711C740.799 174.025 743.485 176.711 746.799 176.711H768.799C772.112 176.711 774.799 174.025 774.799 170.711V145.711C774.799 142.398 772.112 139.711 768.799 139.711Z" fill="#FE9A22"/>
<path d="M768.799 185.711H746.799C743.485 185.711 740.799 188.398 740.799 191.711V216.711C740.799 220.025 743.485 222.711 746.799 222.711H768.799C772.112 222.711 774.799 220.025 774.799 216.711V191.711C774.799 188.398 772.112 185.711 768.799 185.711Z" fill="#005CC5"/>
<path d="M768.799 278.711H746.799C743.485 278.711 740.799 281.398 740.799 284.711V309.711C740.799 313.025 743.485 315.711 746.799 315.711H768.799C772.112 315.711 774.799 313.025 774.799 309.711V284.711C774.799 281.398 772.112 278.711 768.799 278.711Z" fill="#032F62"/>
<path d="M768.799 324.711H746.799C743.485 324.711 740.799 327.398 740.799 330.711V355.711C740.799 359.025 743.485 361.711 746.799 361.711H768.799C772.112 361.711 774.799 359.025 774.799 355.711V330.711C774.799 327.398 772.112 324.711 768.799 324.711Z" fill="#24292E"/>
<path d="M768.799 371.711H746.799C743.485 371.711 740.799 374.398 740.799 377.711V402.711C740.799 406.025 743.485 408.711 746.799 408.711H768.799C772.112 408.711 774.799 406.025 774.799 402.711V377.711C774.799 374.398 772.112 371.711 768.799 371.711Z" fill="#24292E"/>
<path d="M768.799 510.711H746.799C743.485 510.711 740.799 513.398 740.799 516.711V541.711C740.799 545.025 743.485 547.711 746.799 547.711H768.799C772.112 547.711 774.799 545.025 774.799 541.711V516.711C774.799 513.398 772.112 510.711 768.799 510.711Z" fill="#FE9A22"/>
<path d="M768.799 556.711H746.799C743.485 556.711 740.799 559.398 740.799 562.711V587.711C740.799 591.025 743.485 593.711 746.799 593.711H768.799C772.112 593.711 774.799 591.025 774.799 587.711V562.711C774.799 559.398 772.112 556.711 768.799 556.711Z" fill="#24292E"/>
<path d="M768.799 602.711H746.799C743.485 602.711 740.799 605.398 740.799 608.711V633.711C740.799 637.025 743.485 639.711 746.799 639.711H768.799C772.112 639.711 774.799 637.025 774.799 633.711V608.711C774.799 605.398 772.112 602.711 768.799 602.711Z" fill="#005CC5"/>
<path d="M768.799 695.711H746.799C743.485 695.711 740.799 698.398 740.799 701.711V726.711C740.799 730.025 743.485 732.711 746.799 732.711H768.799C772.112 732.711 774.799 730.025 774.799 726.711V701.711C774.799 698.398 772.112 695.711 768.799 695.711Z" fill="#032F62"/>
<path d="M594.799 46.7114H572.799C569.485 46.7114 566.799 49.3977 566.799 52.7114V77.7114C566.799 81.0251 569.485 83.7114 572.799 83.7114H594.799C598.112 83.7114 600.799 81.0251 600.799 77.7114V52.7114C600.799 49.3977 598.112 46.7114 594.799 46.7114Z" fill="#005CC5"/>
<path d="M594.799 93.7114H572.799C569.485 93.7114 566.799 96.3977 566.799 99.7114V124.711C566.799 128.025 569.485 130.711 572.799 130.711H594.799C598.112 130.711 600.799 128.025 600.799 124.711V99.7114C600.799 96.3977 598.112 93.7114 594.799 93.7114Z" fill="#24292E"/>
<path d="M377.799 602.711H354.799C351.485 602.711 348.799 605.398 348.799 608.711V633.711C348.799 637.025 351.485 639.711 354.799 639.711H377.799C381.112 639.711 383.799 637.025 383.799 633.711V608.711C383.799 605.398 381.112 602.711 377.799 602.711Z" fill="#032F62"/>
<path d="M594.799 232.711H572.799C569.485 232.711 566.799 235.398 566.799 238.711V263.711C566.799 267.025 569.485 269.711 572.799 269.711H594.799C598.112 269.711 600.799 267.025 600.799 263.711V238.711C600.799 235.398 598.112 232.711 594.799 232.711Z" fill="#24292E"/>
<path d="M377.799 649.711H354.799C351.485 649.711 348.799 652.398 348.799 655.711V680.711C348.799 684.025 351.485 686.711 354.799 686.711H377.799C381.112 686.711 383.799 684.025 383.799 680.711V655.711C383.799 652.398 381.112 649.711 377.799 649.711Z" fill="#FE9A22"/>
<path d="M594.799 278.711H572.799C569.485 278.711 566.799 281.398 566.799 284.711V309.711C566.799 313.025 569.485 315.711 572.799 315.711H594.799C598.112 315.711 600.799 313.025 600.799 309.711V284.711C600.799 281.398 598.112 278.711 594.799 278.711Z" fill="#24292E"/>
<path d="M377.799 695.711H354.799C351.485 695.711 348.799 698.398 348.799 701.711V726.711C348.799 730.025 351.485 732.711 354.799 732.711H377.799C381.112 732.711 383.799 730.025 383.799 726.711V701.711C383.799 698.398 381.112 695.711 377.799 695.711Z" fill="#24292E"/>
<path d="M594.799 371.711H572.799C569.485 371.711 566.799 374.398 566.799 377.711V402.711C566.799 406.025 569.485 408.711 572.799 408.711H594.799C598.112 408.711 600.799 406.025 600.799 402.711V377.711C600.799 374.398 598.112 371.711 594.799 371.711Z" fill="#032F62"/>
<path d="M594.799 417.711H572.799C569.485 417.711 566.799 420.398 566.799 423.711V448.711C566.799 452.025 569.485 454.711 572.799 454.711H594.799C598.112 454.711 600.799 452.025 600.799 448.711V423.711C600.799 420.398 598.112 417.711 594.799 417.711Z" fill="#FE9A22"/>
<path d="M594.799 463.711H572.799C569.485 463.711 566.799 466.398 566.799 469.711V494.711C566.799 498.025 569.485 500.711 572.799 500.711H594.799C598.112 500.711 600.799 498.025 600.799 494.711V469.711C600.799 466.398 598.112 463.711 594.799 463.711Z" fill="#032F62"/>
<path d="M594.799 510.711H572.799C569.485 510.711 566.799 513.398 566.799 516.711V541.711C566.799 545.025 569.485 547.711 572.799 547.711H594.799C598.112 547.711 600.799 545.025 600.799 541.711V516.711C600.799 513.398 598.112 510.711 594.799 510.711Z" fill="#FE9A22"/>
<path d="M116.799 695.711H93.7986C90.4848 695.711 87.7986 698.398 87.7986 701.711V726.711C87.7986 730.025 90.4848 732.711 93.7986 732.711H116.799C120.112 732.711 122.799 730.025 122.799 726.711V701.711C122.799 698.398 120.112 695.711 116.799 695.711Z" fill="#24292E"/>
<path d="M594.799 602.711H572.799C569.485 602.711 566.799 605.398 566.799 608.711V633.711C566.799 637.025 569.485 639.711 572.799 639.711H594.799C598.112 639.711 600.799 637.025 600.799 633.711V608.711C600.799 605.398 598.112 602.711 594.799 602.711Z" fill="#24292E"/>
<path d="M594.799 649.711H572.799C569.485 649.711 566.799 652.398 566.799 655.711V680.711C566.799 684.025 569.485 686.711 572.799 686.711H594.799C598.112 686.711 600.799 684.025 600.799 680.711V655.711C600.799 652.398 598.112 649.711 594.799 649.711Z" fill="#032F62"/>
<path d="M812.799 0.711426H789.799C786.485 0.711426 783.799 3.39772 783.799 6.71143V31.7114C783.799 35.0251 786.485 37.7114 789.799 37.7114H812.799C816.112 37.7114 818.799 35.0251 818.799 31.7114V6.71143C818.799 3.39772 816.112 0.711426 812.799 0.711426Z" fill="#005CC5"/>
<path d="M812.799 46.7114H789.799C786.485 46.7114 783.799 49.3977 783.799 52.7114V77.7114C783.799 81.0251 786.485 83.7114 789.799 83.7114H812.799C816.112 83.7114 818.799 81.0251 818.799 77.7114V52.7114C818.799 49.3977 816.112 46.7114 812.799 46.7114Z" fill="#032F62"/>
<path d="M812.799 93.7114H789.799C786.485 93.7114 783.799 96.3977 783.799 99.7114V124.711C783.799 128.025 786.485 130.711 789.799 130.711H812.799C816.112 130.711 818.799 128.025 818.799 124.711V99.7114C818.799 96.3977 816.112 93.7114 812.799 93.7114Z" fill="#24292E"/>
<path d="M812.799 185.711H789.799C786.485 185.711 783.799 188.398 783.799 191.711V216.711C783.799 220.025 786.485 222.711 789.799 222.711H812.799C816.112 222.711 818.799 220.025 818.799 216.711V191.711C818.799 188.398 816.112 185.711 812.799 185.711Z" fill="#005CC5"/>
<path d="M812.799 232.711H789.799C786.485 232.711 783.799 235.398 783.799 238.711V263.711C783.799 267.025 786.485 269.711 789.799 269.711H812.799C816.112 269.711 818.799 267.025 818.799 263.711V238.711C818.799 235.398 816.112 232.711 812.799 232.711Z" fill="#FE9A22"/>
<path d="M812.799 278.711H789.799C786.485 278.711 783.799 281.398 783.799 284.711V309.711C783.799 313.025 786.485 315.711 789.799 315.711H812.799C816.112 315.711 818.799 313.025 818.799 309.711V284.711C818.799 281.398 816.112 278.711 812.799 278.711Z" fill="#005CC5"/>
<path d="M812.799 371.711H789.799C786.485 371.711 783.799 374.398 783.799 377.711V402.711C783.799 406.025 786.485 408.711 789.799 408.711H812.799C816.112 408.711 818.799 406.025 818.799 402.711V377.711C818.799 374.398 816.112 371.711 812.799 371.711Z" fill="#24292E"/>
<path d="M812.799 463.711H789.799C786.485 463.711 783.799 466.398 783.799 469.711V494.711C783.799 498.025 786.485 500.711 789.799 500.711H812.799C816.112 500.711 818.799 498.025 818.799 494.711V469.711C818.799 466.398 816.112 463.711 812.799 463.711Z" fill="#24292E"/>
<path d="M812.799 510.711H789.799C786.485 510.711 783.799 513.398 783.799 516.711V541.711C783.799 545.025 786.485 547.711 789.799 547.711H812.799C816.112 547.711 818.799 545.025 818.799 541.711V516.711C818.799 513.398 816.112 510.711 812.799 510.711Z" fill="#032F62"/>
<path d="M812.799 695.711H789.799C786.485 695.711 783.799 698.398 783.799 701.711V726.711C783.799 730.025 786.485 732.711 789.799 732.711H812.799C816.112 732.711 818.799 730.025 818.799 726.711V701.711C818.799 698.398 816.112 695.711 812.799 695.711Z" fill="#FE9A22"/>
<path d="M638.799 0.711426H615.799C612.485 0.711426 609.799 3.39772 609.799 6.71143V31.7114C609.799 35.0251 612.485 37.7114 615.799 37.7114H638.799C642.112 37.7114 644.799 35.0251 644.799 31.7114V6.71143C644.799 3.39772 642.112 0.711426 638.799 0.711426Z" fill="#24292E"/>
<path d="M638.799 46.7114H615.799C612.485 46.7114 609.799 49.3977 609.799 52.7114V77.7114C609.799 81.0251 612.485 83.7114 615.799 83.7114H638.799C642.112 83.7114 644.799 81.0251 644.799 77.7114V52.7114C644.799 49.3977 642.112 46.7114 638.799 46.7114Z" fill="#032F62"/>
<path d="M638.799 139.711H615.799C612.485 139.711 609.799 142.398 609.799 145.711V170.711C609.799 174.025 612.485 176.711 615.799 176.711H638.799C642.112 176.711 644.799 174.025 644.799 170.711V145.711C644.799 142.398 642.112 139.711 638.799 139.711Z" fill="#24292E"/>
<path d="M420.799 556.711H398.799C395.485 556.711 392.799 559.398 392.799 562.711V587.711C392.799 591.025 395.485 593.711 398.799 593.711H420.799C424.112 593.711 426.799 591.025 426.799 587.711V562.711C426.799 559.398 424.112 556.711 420.799 556.711Z" fill="#24292E"/>
<path d="M638.799 185.711H615.799C612.485 185.711 609.799 188.398 609.799 191.711V216.711C609.799 220.025 612.485 222.711 615.799 222.711H638.799C642.112 222.711 644.799 220.025 644.799 216.711V191.711C644.799 188.398 642.112 185.711 638.799 185.711Z" fill="#FE9A22"/>
<path d="M420.799 602.711H398.799C395.485 602.711 392.799 605.398 392.799 608.711V633.711C392.799 637.025 395.485 639.711 398.799 639.711H420.799C424.112 639.711 426.799 637.025 426.799 633.711V608.711C426.799 605.398 424.112 602.711 420.799 602.711Z" fill="#24292E"/>
<path d="M638.799 232.711H615.799C612.485 232.711 609.799 235.398 609.799 238.711V263.711C609.799 267.025 612.485 269.711 615.799 269.711H638.799C642.112 269.711 644.799 267.025 644.799 263.711V238.711C644.799 235.398 642.112 232.711 638.799 232.711Z" fill="#005CC5"/>
<path d="M420.799 649.711H398.799C395.485 649.711 392.799 652.398 392.799 655.711V680.711C392.799 684.025 395.485 686.711 398.799 686.711H420.799C424.112 686.711 426.799 684.025 426.799 680.711V655.711C426.799 652.398 424.112 649.711 420.799 649.711Z" fill="#005CC5"/>
<path d="M638.799 324.711H615.799C612.485 324.711 609.799 327.398 609.799 330.711V355.711C609.799 359.025 612.485 361.711 615.799 361.711H638.799C642.112 361.711 644.799 359.025 644.799 355.711V330.711C644.799 327.398 642.112 324.711 638.799 324.711Z" fill="#24292E"/>
<path d="M638.799 371.711H615.799C612.485 371.711 609.799 374.398 609.799 377.711V402.711C609.799 406.025 612.485 408.711 615.799 408.711H638.799C642.112 408.711 644.799 406.025 644.799 402.711V377.711C644.799 374.398 642.112 371.711 638.799 371.711Z" fill="#032F62"/>
<path d="M638.799 417.711H615.799C612.485 417.711 609.799 420.398 609.799 423.711V448.711C609.799 452.025 612.485 454.711 615.799 454.711H638.799C642.112 454.711 644.799 452.025 644.799 448.711V423.711C644.799 420.398 642.112 417.711 638.799 417.711Z" fill="#24292E"/>
<path d="M638.799 510.711H615.799C612.485 510.711 609.799 513.398 609.799 516.711V541.711C609.799 545.025 612.485 547.711 615.799 547.711H638.799C642.112 547.711 644.799 545.025 644.799 541.711V516.711C644.799 513.398 642.112 510.711 638.799 510.711Z" fill="#005CC5"/>
<path d="M159.799 695.711H137.799C134.485 695.711 131.799 698.398 131.799 701.711V726.711C131.799 730.025 134.485 732.711 137.799 732.711H159.799C163.112 732.711 165.799 730.025 165.799 726.711V701.711C165.799 698.398 163.112 695.711 159.799 695.711Z" fill="#005CC5"/>
<path d="M638.799 556.711H615.799C612.485 556.711 609.799 559.398 609.799 562.711V587.711C609.799 591.025 612.485 593.711 615.799 593.711H638.799C642.112 593.711 644.799 591.025 644.799 587.711V562.711C644.799 559.398 642.112 556.711 638.799 556.711Z" fill="#24292E"/>
<path d="M638.799 695.711H615.799C612.485 695.711 609.799 698.398 609.799 701.711V726.711C609.799 730.025 612.485 732.711 615.799 732.711H638.799C642.112 732.711 644.799 730.025 644.799 726.711V701.711C644.799 698.398 642.112 695.711 638.799 695.711Z" fill="#005CC5"/>
</svg>